<svg width="829" height="490" viewBox="0 0 829 490" fill="none" xmlns="http://www.w3.org/2000/svg">
<rect y="230" width="349" height="219" fill="#212534"/>
<path d="M505.96 211.273V246.784H364.625V211.273H505.96ZM405.818 145.932H447.722V405.875C447.722 417.712 449.438 426.59 452.871 432.509C456.422 438.309 460.92 442.215 466.365 444.227C471.929 446.121 477.788 447.068 483.943 447.068C488.56 447.068 492.348 446.831 495.307 446.358C498.266 445.766 500.634 445.293 502.409 444.938L510.932 482.58C508.091 483.645 504.125 484.71 499.036 485.776C493.946 486.959 487.494 487.551 479.682 487.551C467.845 487.551 456.244 485.006 444.881 479.916C433.635 474.826 424.284 467.073 416.827 456.656C409.488 446.24 405.818 433.1 405.818 417.239V145.932ZM676.859 489.682C652.237 489.682 630.635 483.822 612.05 472.104C593.585 460.385 579.143 443.991 568.727 422.92C558.428 401.85 553.279 377.229 553.279 349.057C553.279 320.648 558.428 295.849 568.727 274.661C579.143 253.472 593.585 237.018 612.05 225.3C630.635 213.581 652.237 207.722 676.859 207.722C701.48 207.722 723.023 213.581 741.489 225.3C760.074 237.018 774.515 253.472 784.813 274.661C795.23 295.849 800.438 320.648 800.438 349.057C800.438 377.229 795.23 401.85 784.813 422.92C774.515 443.991 760.074 460.385 741.489 472.104C723.023 483.822 701.48 489.682 676.859 489.682ZM676.859 452.04C695.561 452.04 710.95 447.246 723.023 437.658C735.097 428.07 744.034 415.463 749.835 399.838C755.635 384.213 758.535 367.286 758.535 349.057C758.535 330.828 755.635 313.841 749.835 298.098C744.034 282.355 735.097 269.63 723.023 259.923C710.95 250.217 695.561 245.364 676.859 245.364C658.156 245.364 642.768 250.217 630.694 259.923C618.62 269.63 609.683 282.355 603.883 298.098C598.083 313.841 595.183 330.828 595.183 349.057C595.183 367.286 598.083 384.213 603.883 399.838C609.683 415.463 618.62 428.07 630.694 437.658C642.768 447.246 658.156 452.04 676.859 452.04Z" fill="#212534"/>
<path d="M90.6676 428.841C79.304 428.841 69.272 425.97 60.5717 420.229C51.8715 414.429 45.0651 406.262 40.1527 395.727C35.2403 385.132 32.7841 372.615 32.7841 358.173C32.7841 343.85 35.2403 331.421 40.1527 320.886C45.0651 310.351 51.901 302.213 60.6605 296.472C69.42 290.731 79.5407 287.861 91.0227 287.861C99.9006 287.861 106.914 289.34 112.063 292.3C117.272 295.2 121.237 298.514 123.96 302.243C126.741 305.912 128.902 308.931 130.44 311.298H132.216V244.182H153.168V426H132.926V405.048H130.44C128.902 407.534 126.712 410.671 123.871 414.459C121.03 418.187 116.976 421.531 111.708 424.491C106.441 427.391 99.4271 428.841 90.6676 428.841ZM93.5085 410.02C101.913 410.02 109.015 407.83 114.815 403.45C120.616 399.011 125.025 392.886 128.043 385.073C131.062 377.201 132.571 368.116 132.571 357.818C132.571 347.638 131.091 338.731 128.132 331.096C125.173 323.402 120.793 317.424 114.993 313.163C109.193 308.842 102.031 306.682 93.5085 306.682C84.6307 306.682 77.2325 308.96 71.3139 313.518C65.4545 318.016 61.0452 324.142 58.0859 331.895C55.1858 339.589 53.7358 348.23 53.7358 357.818C53.7358 367.525 55.2154 376.343 58.1747 384.274C61.1932 392.146 65.6321 398.42 71.4915 403.095C77.41 407.712 84.7491 410.02 93.5085 410.02ZM249.847 428.841C237.537 428.841 226.735 425.911 217.443 420.052C208.21 414.192 200.99 405.995 195.781 395.46C190.632 384.925 188.058 372.615 188.058 358.528C188.058 344.324 190.632 331.924 195.781 321.33C200.99 310.736 208.21 302.509 217.443 296.65C226.735 290.79 237.537 287.861 249.847 287.861C262.158 287.861 272.93 290.79 282.163 296.65C291.455 302.509 298.675 310.736 303.825 321.33C309.033 331.924 311.637 344.324 311.637 358.528C311.637 372.615 309.033 384.925 303.825 395.46C298.675 405.995 291.455 414.192 282.163 420.052C272.93 425.911 262.158 428.841 249.847 428.841ZM249.847 410.02C259.199 410.02 266.893 407.623 272.93 402.829C278.967 398.035 283.435 391.732 286.335 383.919C289.235 376.107 290.685 367.643 290.685 358.528C290.685 349.414 289.235 340.921 286.335 333.049C283.435 325.177 278.967 318.815 272.93 313.962C266.893 309.108 259.199 306.682 249.847 306.682C240.496 306.682 232.802 309.108 226.765 313.962C220.728 318.815 216.259 325.177 213.359 333.049C210.459 340.921 209.009 349.414 209.009 358.528C209.009 367.643 210.459 376.107 213.359 383.919C216.259 391.732 220.728 398.035 226.765 402.829C232.802 407.623 240.496 410.02 249.847 410.02Z" fill="#FFD76B"/>
</svg>
