<svg width="636" height="318" viewBox="0 0 636 318" fill="none" xmlns="http://www.w3.org/2000/svg">
<rect y="177" width="636" height="141" fill="#212534"/>
<path d="M73.2832 293.859V145.91H33.7324V144.445L42.082 126.867H73.2832V74.1328L101.115 60.9492H102.58V126.867H142.131V128.332L133.781 145.91H102.58V280.676L74.748 293.859H73.2832ZM225.627 293.859C207.17 292.59 192.961 287.902 183 279.797C170.891 269.836 164.836 255.334 164.836 236.291V168.029L225.627 121.008C244.084 122.277 258.293 126.965 268.254 135.07C280.363 144.934 286.418 159.436 286.418 178.576V246.838L225.627 293.859ZM225.627 270.715C234.904 270.715 242.473 267.736 248.332 261.779C254.191 255.822 257.121 247.326 257.121 236.291V178.576C257.121 166.369 253.898 157.58 247.453 152.209C241.105 146.838 233.83 144.152 225.627 144.152C216.35 144.152 208.781 147.131 202.922 153.088C197.062 159.045 194.133 167.541 194.133 178.576V236.291C194.133 248.498 197.307 257.287 203.654 262.658C210.002 268.029 217.326 270.715 225.627 270.715Z" fill="#FFD76B"/>
<path d="M370.246 271.867C378.996 271.867 386.06 269.087 391.438 263.527C396.906 257.967 399.641 250.038 399.641 239.738V185.871C399.641 175.207 396.678 167.004 390.754 161.262C385.559 156.249 378.723 153.742 370.246 153.742C361.587 153.742 354.523 156.522 349.055 162.082C343.586 167.642 340.852 175.572 340.852 185.871V239.738C340.852 251.132 343.814 259.335 349.738 264.348C355.663 269.361 362.499 271.867 370.246 271.867ZM370.246 293.469C353.02 292.284 339.758 287.909 330.461 280.344C319.159 271.047 313.508 257.512 313.508 239.738V176.027L370.246 132.141C381.822 132.961 391.62 135.194 399.641 138.84V88.3906L425.617 76.0859H426.984V249.582L370.246 293.469ZM531.574 293.469C514.348 292.284 501.086 287.909 491.789 280.344C480.487 271.047 474.836 257.512 474.836 239.738V176.027L531.574 132.141C548.801 133.326 562.062 137.701 571.359 145.266C582.661 154.471 588.312 168.007 588.312 185.871V249.582L531.574 293.469ZM531.574 271.867C540.233 271.867 547.297 269.087 552.766 263.527C558.234 257.967 560.969 250.038 560.969 239.738V185.871C560.969 174.478 557.961 166.275 551.945 161.262C546.021 156.249 539.23 153.742 531.574 153.742C522.915 153.742 515.852 156.522 510.383 162.082C504.914 167.642 502.18 175.572 502.18 185.871V239.738C502.18 251.132 505.142 259.335 511.066 264.348C516.991 269.361 523.827 271.867 531.574 271.867Z" fill="#FFD76B"/>
</svg>
