<svg width="851" height="555" viewBox="0 0 851 555" fill="none" xmlns="http://www.w3.org/2000/svg">
<rect x="502" y="260" width="348.918" height="290" fill="#FFD76B"/>
<path d="M94 313.5V475C94 488.333 96.8333 497.833 102.5 503.5C108.167 508.833 118 511.5 132 511.5H165.5V550H124.5C99.1667 550 80.1667 544.167 67.5 532.5C54.8333 520.833 48.5 501.667 48.5 475V313.5H13V276H48.5V207H94V276H165.5V313.5H94ZM340.129 554.5C314.462 554.5 291.129 548.667 270.129 537C249.462 525.333 233.129 508.833 221.129 487.5C209.462 465.833 203.629 440.833 203.629 412.5C203.629 384.5 209.629 359.833 221.629 338.5C233.962 316.833 250.629 300.333 271.629 289C292.629 277.333 316.129 271.5 342.129 271.5C368.129 271.5 391.629 277.333 412.629 289C433.629 300.333 450.129 316.667 462.129 338C474.462 359.333 480.629 384.167 480.629 412.5C480.629 440.833 474.296 465.833 461.629 487.5C449.296 508.833 432.462 525.333 411.129 537C389.796 548.667 366.129 554.5 340.129 554.5ZM340.129 514.5C356.462 514.5 371.796 510.667 386.129 503C400.462 495.333 411.962 483.833 420.629 468.5C429.629 453.167 434.129 434.5 434.129 412.5C434.129 390.5 429.796 371.833 421.129 356.5C412.462 341.167 401.129 329.833 387.129 322.5C373.129 314.833 357.962 311 341.629 311C324.962 311 309.629 314.833 295.629 322.5C281.962 329.833 270.962 341.167 262.629 356.5C254.296 371.833 250.129 390.5 250.129 412.5C250.129 434.833 254.129 453.667 262.129 469C270.462 484.333 281.462 495.833 295.129 503.5C308.796 510.833 323.796 514.5 340.129 514.5Z" fill="#FFD76B"/>
<path d="M522.75 417C522.75 403 525.583 390.75 531.25 380.25C536.917 369.583 544.667 361.333 554.5 355.5C564.5 349.667 575.667 346.75 588 346.75C598.667 346.75 608.583 349.25 617.75 354.25C626.917 359.083 633.917 365.5 638.75 373.5V301H661.75V486H638.75V460.25C634.25 468.417 627.583 475.167 618.75 480.5C609.917 485.667 599.583 488.25 587.75 488.25C575.583 488.25 564.5 485.25 554.5 479.25C544.667 473.25 536.917 464.833 531.25 454C525.583 443.167 522.75 430.833 522.75 417ZM638.75 417.25C638.75 406.917 636.667 397.917 632.5 390.25C628.333 382.583 622.667 376.75 615.5 372.75C608.5 368.583 600.75 366.5 592.25 366.5C583.75 366.5 576 368.5 569 372.5C562 376.5 556.417 382.333 552.25 390C548.083 397.667 546 406.667 546 417C546 427.5 548.083 436.667 552.25 444.5C556.417 452.167 562 458.083 569 462.25C576 466.25 583.75 468.25 592.25 468.25C600.75 468.25 608.5 466.25 615.5 462.25C622.667 458.083 628.333 452.167 632.5 444.5C636.667 436.667 638.75 427.583 638.75 417.25ZM759.945 488.25C747.112 488.25 735.445 485.333 724.945 479.5C714.612 473.667 706.445 465.417 700.445 454.75C694.612 443.917 691.695 431.417 691.695 417.25C691.695 403.25 694.695 390.917 700.695 380.25C706.862 369.417 715.195 361.167 725.695 355.5C736.195 349.667 747.945 346.75 760.945 346.75C773.945 346.75 785.695 349.667 796.195 355.5C806.695 361.167 814.945 369.333 820.945 380C827.112 390.667 830.195 403.083 830.195 417.25C830.195 431.417 827.029 443.917 820.695 454.75C814.529 465.417 806.112 473.667 795.445 479.5C784.779 485.333 772.945 488.25 759.945 488.25ZM759.945 468.25C768.112 468.25 775.779 466.333 782.945 462.5C790.112 458.667 795.862 452.917 800.195 445.25C804.695 437.583 806.945 428.25 806.945 417.25C806.945 406.25 804.779 396.917 800.445 389.25C796.112 381.583 790.445 375.917 783.445 372.25C776.445 368.417 768.862 366.5 760.695 366.5C752.362 366.5 744.695 368.417 737.695 372.25C730.862 375.917 725.362 381.583 721.195 389.25C717.029 396.917 714.945 406.25 714.945 417.25C714.945 428.417 716.945 437.833 720.945 445.5C725.112 453.167 730.612 458.917 737.445 462.75C744.279 466.417 751.779 468.25 759.945 468.25Z" fill="#212534"/>
</svg>
