<svg width="677" height="403" viewBox="0 0 677 403" fill="none" xmlns="http://www.w3.org/2000/svg">
<rect x="328" y="49" width="348.918" height="290" fill="#FFD76B"/>
<path d="M56.4 188.1V285C56.4 293 58.1 298.7 61.5 302.1C64.9 305.3 70.8 306.9 79.2 306.9H99.3V330H74.7C59.5 330 48.1 326.5 40.5 319.5C32.9 312.5 29.1 301 29.1 285V188.1H7.8V165.6H29.1V124.2H56.4V165.6H99.3V188.1H56.4ZM204.077 332.7C188.677 332.7 174.677 329.2 162.077 322.2C149.677 315.2 139.877 305.3 132.677 292.5C125.677 279.5 122.177 264.5 122.177 247.5C122.177 230.7 125.777 215.9 132.977 203.1C140.377 190.1 150.377 180.2 162.977 173.4C175.577 166.4 189.677 162.9 205.277 162.9C220.877 162.9 234.977 166.4 247.577 173.4C260.177 180.2 270.077 190 277.277 202.8C284.677 215.6 288.377 230.5 288.377 247.5C288.377 264.5 284.577 279.5 276.977 292.5C269.577 305.3 259.477 315.2 246.677 322.2C233.877 329.2 219.677 332.7 204.077 332.7ZM204.077 308.7C213.877 308.7 223.077 306.4 231.677 301.8C240.277 297.2 247.177 290.3 252.377 281.1C257.777 271.9 260.477 260.7 260.477 247.5C260.477 234.3 257.877 223.1 252.677 213.9C247.477 204.7 240.677 197.9 232.277 193.5C223.877 188.9 214.777 186.6 204.977 186.6C194.977 186.6 185.777 188.9 177.377 193.5C169.177 197.9 162.577 204.7 157.577 213.9C152.577 223.1 150.077 234.3 150.077 247.5C150.077 260.9 152.477 272.2 157.277 281.4C162.277 290.6 168.877 297.5 177.077 302.1C185.277 306.5 194.277 308.7 204.077 308.7Z" fill="#FFD76B"/>
<path d="M348.75 254C348.75 240 351.583 227.75 357.25 217.25C362.917 206.583 370.667 198.333 380.5 192.5C390.5 186.667 401.667 183.75 414 183.75C424.667 183.75 434.583 186.25 443.75 191.25C452.917 196.083 459.917 202.5 464.75 210.5V138H487.75V323H464.75V297.25C460.25 305.417 453.583 312.167 444.75 317.5C435.917 322.667 425.583 325.25 413.75 325.25C401.583 325.25 390.5 322.25 380.5 316.25C370.667 310.25 362.917 301.833 357.25 291C351.583 280.167 348.75 267.833 348.75 254ZM464.75 254.25C464.75 243.917 462.667 234.917 458.5 227.25C454.333 219.583 448.667 213.75 441.5 209.75C434.5 205.583 426.75 203.5 418.25 203.5C409.75 203.5 402 205.5 395 209.5C388 213.5 382.417 219.333 378.25 227C374.083 234.667 372 243.667 372 254C372 264.5 374.083 273.667 378.25 281.5C382.417 289.167 388 295.083 395 299.25C402 303.25 409.75 305.25 418.25 305.25C426.75 305.25 434.5 303.25 441.5 299.25C448.667 295.083 454.333 289.167 458.5 281.5C462.667 273.667 464.75 264.583 464.75 254.25ZM585.945 325.25C573.112 325.25 561.445 322.333 550.945 316.5C540.612 310.667 532.445 302.417 526.445 291.75C520.612 280.917 517.695 268.417 517.695 254.25C517.695 240.25 520.695 227.917 526.695 217.25C532.862 206.417 541.195 198.167 551.695 192.5C562.195 186.667 573.945 183.75 586.945 183.75C599.945 183.75 611.695 186.667 622.195 192.5C632.695 198.167 640.945 206.333 646.945 217C653.112 227.667 656.195 240.083 656.195 254.25C656.195 268.417 653.029 280.917 646.695 291.75C640.529 302.417 632.112 310.667 621.445 316.5C610.779 322.333 598.945 325.25 585.945 325.25ZM585.945 305.25C594.112 305.25 601.779 303.333 608.945 299.5C616.112 295.667 621.862 289.917 626.195 282.25C630.695 274.583 632.945 265.25 632.945 254.25C632.945 243.25 630.779 233.917 626.445 226.25C622.112 218.583 616.445 212.917 609.445 209.25C602.445 205.417 594.862 203.5 586.695 203.5C578.362 203.5 570.695 205.417 563.695 209.25C556.862 212.917 551.362 218.583 547.195 226.25C543.029 233.917 540.945 243.25 540.945 254.25C540.945 265.417 542.945 274.833 546.945 282.5C551.112 290.167 556.612 295.917 563.445 299.75C570.279 303.417 577.779 305.25 585.945 305.25Z" fill="#212534"/>
</svg>
