<svg width="1799" height="353" viewBox="0 0 1799 353" fill="none" xmlns="http://www.w3.org/2000/svg">
<path d="M26 352.5C9 352.5 0.500001 341.667 0.500001 320C0.500001 306.667 4 290.5 11 271.5C14.6667 261.833 18.5 253.667 22.5 247C26.5 240 30.8333 234.333 35.5 230C40.5 225 45.5 222.5 50.5 222.5C54.5 222.5 56.5 223.667 56.5 226C56.5 227 56.1667 227.833 55.5 228.5C51.1667 233.833 46.8333 240.5 42.5 248.5C38.1667 256.5 33.6667 265.5 29 275.5C19.3333 297.833 14.5 314.667 14.5 326C14.5 336.667 18.5 342 26.5 342C43.8333 342 64.5 317.167 88.5 267.5C89.8333 264.167 91.1667 260.833 92.5 257.5C94.1667 253.833 96.1667 249.833 98.5 245.5C99.8333 243.167 102.667 242 107 242C112.333 242 115.333 244.333 116 249C106.667 269.667 102 287 102 301C102 307 103 311.833 105 315.5C107.333 319.167 110.333 321 114 321C118 321 122 318.5 126 313.5C130.333 308.5 134.167 302.333 137.5 295C141.167 287.667 144 280.5 146 273.5C148.333 266.5 149.5 261.167 149.5 257.5C149.5 255.5 149.333 252.5 149 248.5C148.667 244.167 148.5 241.167 148.5 239.5C148.5 225.833 151.667 219 158 219C164 219 167 224.667 167 236C167 238.333 166.333 242.167 165 247.5C164 252.5 163.5 255.333 163.5 256C163.833 262.667 165 269.667 167 277C169 284 172.333 290 177 295C182 300 188.667 302.5 197 302.5C201.667 302.5 207.333 300.667 214 297C220.667 293 227.5 286.333 234.5 277C235.167 276.333 236.167 276 237.5 276C238.5 276 239 277 239 279C239 281 238.167 283.167 236.5 285.5C232.167 291.5 226.5 297.167 219.5 302.5C212.5 307.5 205 310 197 310C184 310 174.333 306.333 168 299C162 291.333 157.333 282 154 271C152.667 279.333 150 288.333 146 298C142.333 307.333 137.5 315.5 131.5 322.5C125.5 329.167 118.667 332.5 111 332.5C100.667 332.5 93.6667 328.667 90 321C86.6667 313.333 85 304.5 85 294.5C81.6667 303.167 76.5 312 69.5 321C62.5 330 55 337.5 47 343.5C39.3333 349.5 32.3333 352.5 26 352.5ZM284.563 334C270.896 334 259.063 330.167 249.063 322.5C239.396 314.5 234.563 302.5 234.563 286.5C234.563 268.833 240.396 250.667 252.063 232C258.063 222.333 265.396 214.667 274.063 209C282.729 203 290.396 200 297.063 200C306.729 200 311.563 205.833 311.563 217.5C311.563 227.5 304.896 239.667 291.563 254C279.229 266.667 267.563 275.333 256.563 280C256.229 281.333 255.896 282.833 255.563 284.5C255.563 285.833 255.563 287.333 255.563 289C255.563 310 268.063 320.5 293.063 320.5C307.396 320.5 320.729 316.167 333.063 307.5C345.729 298.5 356.729 288.333 366.063 277C367.729 275 369.229 274 370.563 274C371.896 274 372.563 274.667 372.563 276C372.563 277.333 371.896 279.167 370.563 281.5C369.229 283.5 368.229 284.833 367.563 285.5C362.229 292.833 356.563 299.333 350.563 305C344.896 310.667 337.229 316.167 327.563 321.5C320.563 325.833 313.229 329 305.563 331C298.229 333 291.229 334 284.563 334ZM258.563 269.5C262.896 267.167 267.063 264.5 271.063 261.5C275.396 258.167 279.563 254.333 283.563 250C292.563 239.333 297.063 230 297.063 222C297.063 217 295.563 214.5 292.563 214.5C289.896 214.5 286.396 216.833 282.063 221.5C278.063 225.833 274.229 231.333 270.563 238C264.229 251 260.229 261.5 258.563 269.5ZM415.922 336C382.255 336 365.422 311.167 365.422 261.5C365.422 212.833 381.422 160 413.422 103C444.755 46.3333 474.422 18 502.422 18C512.422 18 519.089 24.8333 522.422 38.5V45C522.422 69 503.922 109.5 466.922 166.5C451.255 191.167 436.422 212.667 422.422 231C408.755 249.333 395.922 264.833 383.922 277.5C387.922 307.5 401.755 322.5 425.422 322.5C439.755 322.5 451.922 318.5 461.922 310.5C471.922 302.167 482.589 291 493.922 277C495.922 275 497.255 274 497.922 274C498.922 274 499.422 274.833 499.422 276.5C499.422 278.833 498.255 281.833 495.922 285.5C481.589 303.833 468.089 316.833 455.422 324.5C442.755 332.167 429.589 336 415.922 336ZM384.422 265C402.422 247.333 425.922 212.333 454.922 160C485.589 104.333 500.922 66 500.922 45C500.922 35.6666 498.255 31 492.922 31C472.255 31 448.755 60.6666 422.422 120C410.089 149.333 400.589 176 393.922 200C387.589 224 384.422 245.667 384.422 265ZM532.84 333.5C520.507 333.5 510.84 329.333 503.84 321C496.84 312.333 493.34 301.667 493.34 289C493.34 273.333 501.007 256 516.34 237C532.007 218.333 547.673 209 563.34 209C575.34 209 581.34 213.5 581.34 222.5C581.34 225.833 579.007 231.833 574.34 240.5C570.007 249.5 566.84 254 564.84 254C563.84 254 563.173 252.833 562.84 250.5C562.84 249.167 563.173 247 563.84 244C564.84 241 565.34 238.833 565.34 237.5C565.34 229.167 560.34 225 550.34 225C539.34 225 529.84 232 521.84 246C514.84 258.333 511.34 270.667 511.34 283C511.34 307.667 521.673 320 542.34 320C559.007 320 573.007 316 584.34 308C595.673 299.667 606.84 289.167 617.84 276.5C619.507 274.833 621.007 274 622.34 274C623.673 274 624.34 274.667 624.34 276C624.34 277.333 623.673 278.833 622.34 280.5C621.34 282.167 620.34 283.833 619.34 285.5C615.007 291.167 609.673 297.167 603.34 303.5C597.34 309.833 590.507 315.333 582.84 320C573.507 325.333 564.673 328.833 556.34 330.5C548.007 332.5 540.173 333.5 532.84 333.5ZM630.875 339C618.542 339 612.375 330 612.375 312C612.375 307.333 612.875 302.167 613.875 296.5C614.875 290.833 616.208 284.833 617.875 278.5C621.208 266.833 626.208 253.667 632.875 239C642.875 218.333 651.208 208 657.875 208C664.208 208 669.375 211.5 673.375 218.5C676.042 217.5 678.208 217 679.875 217C689.208 217 693.875 224 693.875 238C693.875 244 692.708 251 690.375 259C688.042 267 684.042 277 678.375 289C686.708 296.667 694.875 300.5 702.875 300.5C709.208 300.5 715.208 299 720.875 296C726.542 292.667 732.875 286.333 739.875 277C740.542 276.333 741.542 276 742.875 276C743.875 276 744.375 277 744.375 279C744.375 281 743.542 283.167 741.875 285.5C737.542 291.167 732.042 296.333 725.375 301C719.042 305.333 711.042 307.5 701.375 307.5C691.708 307.5 683.042 304.167 675.375 297.5C662.708 325.167 647.875 339 630.875 339ZM672.375 282.5C675.042 276.5 677.042 270.333 678.375 264C679.708 257.667 680.375 250.833 680.375 243.5C680.375 232.167 677.042 226.5 670.375 226.5C664.042 226.5 660.875 232.667 660.875 245C660.875 250.333 662.042 256.833 664.375 264.5C667.042 272.167 669.708 278.167 672.375 282.5ZM639.875 325C644.542 325 650.375 320.5 657.375 311.5C660.375 307.833 662.875 304.167 664.875 300.5C666.875 296.5 668.208 293.833 668.875 292.5C663.875 286.833 659.542 280.833 655.875 274.5C652.208 268.167 650.042 261.667 649.375 255C645.375 258.333 641.208 267 636.875 281C632.542 295 630.375 305.167 630.375 311.5C630.375 320.5 633.542 325 639.875 325ZM814.934 337.5C811.934 337.5 809.6 335 807.934 330V320.5C807.934 279.167 802.6 258.5 791.934 258.5C784.934 258.5 774.267 269.833 759.934 292.5C755.934 298.5 751.934 304.5 747.934 310.5C744.267 316.5 740.6 322.5 736.934 328.5C734.934 329.167 733.434 329.5 732.434 329.5C729.1 329.5 727.434 327 727.434 322V320.5L733.434 300.5C740.434 279.5 745.6 262.833 748.934 250.5C752.267 237.833 753.934 229.5 753.934 225.5C753.934 224.167 753.767 223.333 753.434 223C760.1 217 766.434 214 772.434 214C775.434 214 776.6 214.833 775.934 216.5L766.934 267C770.267 262.333 777.1 256.5 787.434 249.5C792.767 245.833 797.267 243.167 800.934 241.5C804.934 239.833 808.1 239 810.434 239C820.767 239 826.6 259.833 827.934 301.5C831.6 294.833 836.434 286.5 842.434 276.5C848.767 266.5 856.1 255 864.434 242C869.1 235.667 874.1 232.5 879.434 232.5C884.434 232.5 887.434 235.667 888.434 242C889.434 255 890.434 267.167 891.434 278.5C892.434 289.5 894.6 298.333 897.934 305C901.267 311.667 906.934 315.167 914.934 315.5C924.934 315.5 934.767 311.833 944.434 304.5C954.434 296.833 963.434 287.667 971.434 277C973.1 274.333 974.767 273 976.434 273C977.434 273 977.934 274.333 977.934 277C977.934 277.667 977.267 279.167 975.934 281.5C974.6 283.5 973.6 284.833 972.934 285.5C967.267 293.833 960.6 302 952.934 310C945.6 317.667 937.767 324 929.434 329C921.1 333.667 912.767 336 904.434 336C892.1 336 883.1 329.333 877.434 316C871.767 302.667 868.267 283.833 866.934 259.5C859.934 265.833 852.434 277.167 844.434 293.5C839.434 302.833 835.267 310.667 831.934 317C828.6 323 826.1 327.333 824.434 330C821.1 335 817.934 337.5 814.934 337.5ZM1020.89 334C1007.22 334 995.391 330.167 985.391 322.5C975.724 314.5 970.891 302.5 970.891 286.5C970.891 268.833 976.724 250.667 988.391 232C994.391 222.333 1001.72 214.667 1010.39 209C1019.06 203 1026.72 200 1033.39 200C1043.06 200 1047.89 205.833 1047.89 217.5C1047.89 227.5 1041.22 239.667 1027.89 254C1015.56 266.667 1003.89 275.333 992.891 280C992.557 281.333 992.224 282.833 991.891 284.5C991.891 285.833 991.891 287.333 991.891 289C991.891 310 1004.39 320.5 1029.39 320.5C1043.72 320.5 1057.06 316.167 1069.39 307.5C1082.06 298.5 1093.06 288.333 1102.39 277C1104.06 275 1105.56 274 1106.89 274C1108.22 274 1108.89 274.667 1108.89 276C1108.89 277.333 1108.22 279.167 1106.89 281.5C1105.56 283.5 1104.56 284.833 1103.89 285.5C1098.56 292.833 1092.89 299.333 1086.89 305C1081.22 310.667 1073.56 316.167 1063.89 321.5C1056.89 325.833 1049.56 329 1041.89 331C1034.56 333 1027.56 334 1020.89 334ZM994.891 269.5C999.224 267.167 1003.39 264.5 1007.39 261.5C1011.72 258.167 1015.89 254.333 1019.89 250C1028.89 239.333 1033.39 230 1033.39 222C1033.39 217 1031.89 214.5 1028.89 214.5C1026.22 214.5 1022.72 216.833 1018.39 221.5C1014.39 225.833 1010.56 231.333 1006.89 238C1000.56 251 996.557 261.5 994.891 269.5ZM1204.39 334.5C1187.05 334.5 1178.39 321.833 1178.39 296.5C1178.39 270.167 1187.89 233.833 1206.89 187.5C1214.22 169.833 1222.05 152.333 1230.39 135C1238.72 117.667 1247.55 100.833 1256.89 84.5C1260.22 78.8333 1264.39 72.1667 1269.39 64.5C1274.39 56.8333 1280.55 48.3333 1287.89 39C1290.22 36.6666 1293.89 35.5 1298.89 35.5C1307.55 35.5 1311.89 37.3333 1311.89 41C1311.89 41.6667 1311.55 42.6667 1310.89 44C1305.55 50.3333 1299.55 58.3333 1292.89 68C1286.55 77.6666 1279.39 89.1667 1271.39 102.5C1261.05 120.5 1251.72 137.167 1243.39 152.5C1235.05 167.5 1228.05 181.5 1222.39 194.5C1212.05 217.5 1204.22 238.167 1198.89 256.5C1193.89 274.5 1191.39 289.833 1191.39 302.5C1191.39 317.833 1197.05 325.5 1208.39 325.5C1214.05 325.5 1219.72 322.5 1225.39 316.5C1231.39 310.167 1237.39 302 1243.39 292C1239.05 286.333 1236.05 280 1234.39 273C1232.72 265.667 1231.89 257 1231.89 247C1231.89 227.667 1237.05 218 1247.39 218C1257.05 218 1261.89 227.333 1261.89 246C1261.89 264.333 1259.39 279.333 1254.39 291C1259.39 295 1265.05 297 1271.39 297C1277.05 297 1282.89 295.167 1288.89 291.5C1295.22 287.833 1300.55 283 1304.89 277C1305.55 276.333 1306.55 276 1307.89 276C1308.89 276 1309.39 277 1309.39 279C1309.39 279.333 1309.05 280.333 1308.39 282C1308.05 283.667 1307.55 284.833 1306.89 285.5C1302.55 291.5 1297.05 296.167 1290.39 299.5C1283.72 302.5 1277.05 304 1270.39 304C1262.39 304 1256.05 302 1251.39 298C1235.72 322.333 1220.05 334.5 1204.39 334.5ZM1310.38 333C1296.71 333 1289.88 326.333 1289.88 313C1289.88 300.333 1299.04 282.667 1317.38 260C1334.04 239 1348.54 224.5 1360.88 216.5C1373.21 208.5 1384.71 204.5 1395.38 204.5C1408.04 204.5 1414.38 208.167 1414.38 215.5C1414.38 217.167 1412.71 219.667 1409.38 223C1406.04 226 1404.21 227.833 1403.88 228.5C1397.54 238.833 1394.38 259.833 1394.38 291.5C1394.38 309.833 1398.38 319 1406.38 319C1413.71 319 1422.21 314.667 1431.88 306C1441.54 297.333 1450.54 287.667 1458.88 277C1459.88 276 1460.71 275.5 1461.38 275.5C1462.71 275.5 1463.38 276.333 1463.38 278C1463.38 278.667 1463.04 279.833 1462.38 281.5C1462.04 283.167 1461.54 284.5 1460.88 285.5C1447.21 303.833 1435.38 316.167 1425.38 322.5C1415.71 328.833 1406.21 332 1396.88 332C1381.88 332 1374.54 316 1374.88 284C1368.54 295.333 1359.38 306 1347.38 316C1333.38 327.333 1321.04 333 1310.38 333ZM1323.88 319.5C1329.54 319.5 1335.54 317.167 1341.88 312.5C1361.54 296.833 1374.38 267.5 1380.38 224.5C1379.38 224.5 1378.71 224.333 1378.38 224C1371.71 224 1362.88 228 1351.88 236C1342.54 242.333 1335.04 249.167 1329.38 256.5C1316.04 273.833 1309.38 288.833 1309.38 301.5C1309.38 313.5 1314.21 319.5 1323.88 319.5ZM1497.68 333.5C1485.35 333.5 1475.68 329.333 1468.68 321C1461.68 312.333 1458.18 301.667 1458.18 289C1458.18 273.333 1465.85 256 1481.18 237C1496.85 218.333 1512.52 209 1528.18 209C1540.18 209 1546.18 213.5 1546.18 222.5C1546.18 225.833 1543.85 231.833 1539.18 240.5C1534.85 249.5 1531.68 254 1529.68 254C1528.68 254 1528.02 252.833 1527.68 250.5C1527.68 249.167 1528.02 247 1528.68 244C1529.68 241 1530.18 238.833 1530.18 237.5C1530.18 229.167 1525.18 225 1515.18 225C1504.18 225 1494.68 232 1486.68 246C1479.68 258.333 1476.18 270.667 1476.18 283C1476.18 307.667 1486.52 320 1507.18 320C1523.85 320 1537.85 316 1549.18 308C1560.52 299.667 1571.68 289.167 1582.68 276.5C1584.35 274.833 1585.85 274 1587.18 274C1588.52 274 1589.18 274.667 1589.18 276C1589.18 277.333 1588.52 278.833 1587.18 280.5C1586.18 282.167 1585.18 283.833 1584.18 285.5C1579.85 291.167 1574.52 297.167 1568.18 303.5C1562.18 309.833 1555.35 315.333 1547.68 320C1538.35 325.333 1529.52 328.833 1521.18 330.5C1512.85 332.5 1505.02 333.5 1497.68 333.5ZM1698.72 340C1686.05 340 1674.39 336.333 1663.72 329C1653.05 321.667 1645.39 309.333 1640.72 292C1640.39 289.667 1639.72 286 1638.72 281C1638.05 275.667 1637.22 268.667 1636.22 260C1626.22 269 1614.05 284.667 1599.72 307C1598.05 309.667 1595.89 313 1593.22 317C1590.89 320.667 1587.89 325 1584.22 330C1582.89 331.333 1581.05 332 1578.72 332C1572.72 332 1569.72 328.667 1569.72 322C1569.72 320.667 1574.05 306.5 1582.72 279.5C1640.72 101.167 1673.05 8.66665 1679.72 1.99999C1681.05 0.666655 1683.22 -1.3113e-05 1686.22 -1.3113e-05C1696.89 -1.3113e-05 1702.22 3.83332 1702.22 11.5C1702.22 16.1667 1697.72 30 1688.72 53C1681.05 72.3333 1673.22 91.5 1665.22 110.5C1657.22 129.5 1649.22 148.5 1641.22 167.5C1615.89 229.5 1603.39 265 1603.72 274L1657.22 229.5C1668.89 219.833 1679.89 212.833 1690.22 208.5C1700.55 203.833 1709.55 201.5 1717.22 201.5C1732.55 201.5 1740.22 209.167 1740.22 224.5C1740.22 232.5 1736.55 240 1729.22 247C1722.22 253.667 1713.72 259.167 1703.72 263.5C1693.72 267.5 1684.22 269.5 1675.22 269.5C1670.55 269.5 1666.05 268.667 1661.72 267C1661.72 283.667 1665.55 297.833 1673.22 309.5C1677.55 316.167 1682.72 321 1688.72 324C1695.05 326.667 1701.55 328 1708.22 328C1714.89 328 1721.72 326.833 1728.72 324.5C1735.72 322.167 1742.05 319.333 1747.72 316C1757.72 309.667 1765.89 303.5 1772.22 297.5C1778.89 291.5 1785.55 284.667 1792.22 277C1793.89 275.333 1795.22 274.5 1796.22 274.5C1797.55 274.5 1798.22 275.333 1798.22 277C1798.22 278 1797.72 279.5 1796.72 281.5C1795.72 283.167 1794.89 284.5 1794.22 285.5C1789.55 291.5 1784.22 297.333 1778.22 303C1772.22 308.667 1765.05 314.333 1756.72 320C1748.05 326.333 1738.55 331.167 1728.22 334.5C1718.22 338.167 1708.39 340 1698.72 340ZM1669.22 258C1678.89 258 1688.22 255.333 1697.22 250C1706.22 244.667 1710.72 238.333 1710.72 231C1710.72 223.333 1706.22 219.5 1697.22 219.5C1691.55 219.5 1685.72 221.333 1679.72 225C1673.72 228.667 1668.05 233 1662.72 238C1657.39 242.667 1652.55 247.167 1648.22 251.5C1653.55 255.833 1660.55 258 1669.22 258Z" fill="#FFD76B"/>
</svg>
