<?xml version="1.0" standalone="no"?>
<!DOCTYPE svg PUBLIC "-//W3C//DTD SVG 20010904//EN"
 "http://www.w3.org/TR/2001/REC-SVG-20010904/DTD/svg10.dtd">
<svg version="1.0" xmlns="http://www.w3.org/2000/svg"
 width="477.000000pt" height="523.000000pt" viewBox="0 0 477.000000 523.000000"
 preserveAspectRatio="xMidYMid meet">

<g transform="translate(0.000000,523.000000) scale(0.100000,-0.100000)"
fill="#000000" stroke="none">
<path d="M2986 5150 c-36 -9 -74 -25 -86 -35 -20 -18 -21 -18 -43 3 -34 32
-74 43 -131 36 -58 -8 -77 -16 -127 -56 -31 -25 -39 -27 -63 -18 -15 5 -56 10
-91 10 l-64 0 -60 -57 c-57 -55 -60 -61 -66 -118 -4 -33 -13 -74 -21 -92 -16
-37 -18 -67 -4 -93 15 -27 -3 -64 -60 -127 -35 -38 -55 -71 -66 -109 -19 -66
-14 -84 23 -84 25 1 26 2 11 14 -18 13 -25 36 -10 36 4 -1 18 -7 32 -15 14 -8
28 -14 33 -15 14 0 7 23 -10 36 -17 12 -17 14 2 28 34 26 49 20 39 -16 -13
-53 -8 -169 9 -224 15 -49 14 -52 -5 -72 -11 -11 -17 -25 -13 -32 5 -8 11 -6
19 6 15 20 36 11 36 -16 0 -10 5 -22 11 -26 6 -3 9 -17 6 -30 -3 -18 0 -23 16
-21 28 3 54 -47 73 -140 23 -112 34 -129 139 -209 45 -35 77 -53 114 -65 49
-17 -92 -2 -149 15 -61 19 -145 88 -174 143 -9 19 -18 71 -22 133 -7 100 -8
102 -44 141 -21 22 -50 66 -66 97 -23 46 -28 69 -28 128 0 58 -3 71 -13 62
-38 -31 18 -230 86 -303 41 -44 41 -45 41 -122 0 -104 14 -147 64 -202 23 -25
54 -71 69 -101 15 -30 61 -91 102 -135 41 -44 75 -83 75 -88 0 -4 -19 -38 -41
-75 -75 -121 -127 -235 -164 -357 -20 -66 -42 -133 -50 -150 -7 -16 -16 -44
-19 -61 l-7 -31 -92 25 c-71 18 -107 23 -159 19 -106 -9 -105 -8 -348 -278
-65 -72 -91 -98 -203 -204 -171 -162 -157 -153 -215 -145 -28 3 -55 10 -59 14
-4 4 8 19 27 34 66 51 141 123 199 190 33 37 78 85 101 107 23 22 54 58 68 80
33 52 165 188 222 229 55 40 142 76 182 76 17 0 53 -6 81 -14 76 -21 147 -29
147 -17 0 6 -17 13 -37 17 -21 3 -72 15 -115 25 -42 10 -84 19 -93 19 -9 0
-55 -19 -103 -41 -99 -48 -184 -121 -285 -247 -37 -47 -84 -101 -105 -121 -20
-21 -77 -81 -127 -134 -49 -54 -108 -110 -130 -124 -22 -15 -53 -38 -68 -52
-25 -23 -36 -26 -90 -23 -34 1 -75 6 -92 11 -64 20 -212 41 -255 37 -104 -9
-106 -17 -55 -274 12 -57 11 -64 -4 -69 -9 -2 -49 -18 -88 -34 -70 -28 -80
-29 -273 -33 -110 -3 -204 -7 -210 -11 -23 -14 1 -101 31 -110 10 -4 19 -13
19 -21 0 -8 11 -20 25 -26 14 -6 25 -14 25 -18 0 -15 56 -30 115 -32 144 -4
379 4 396 13 14 7 20 6 23 -3 14 -53 52 -229 64 -305 19 -108 11 -103 177
-128 61 -9 128 -20 150 -25 22 -5 85 -14 140 -20 87 -9 234 -36 595 -106 230
-44 253 -41 378 53 24 18 54 33 66 33 12 0 26 4 32 9 5 5 47 11 94 14 165 9
313 60 375 128 32 36 63 95 107 204 31 77 36 261 10 337 -11 31 -18 58 -16 61
2 2 35 -4 72 -14 37 -9 128 -32 202 -49 144 -34 301 -77 415 -115 94 -31 295
-50 444 -41 180 10 274 35 386 101 107 63 170 119 204 179 44 78 53 118 53
236 0 93 -3 114 -20 142 -31 50 -194 191 -238 207 -44 15 -242 121 -350 187
-40 24 -79 44 -88 44 -12 0 -16 10 -16 43 0 51 -45 123 -105 165 -29 21 -35
30 -29 47 12 34 8 149 -7 175 -7 14 -23 54 -35 90 -36 104 -48 132 -76 177
-99 154 -110 176 -101 207 8 28 14 32 68 42 33 6 68 15 77 19 37 15 88 107 88
159 0 20 -12 48 -40 92 -12 20 -9 27 32 82 41 54 46 67 47 114 0 71 -42 148
-99 180 -32 18 -39 27 -34 43 26 84 28 116 9 171 -22 65 -76 120 -130 130 -41
7 -55 29 -75 114 -11 46 -22 64 -69 109 -74 71 -125 94 -191 85 l-50 -7 6 29
c4 23 -2 37 -31 72 -67 78 -141 99 -249 72z m-331 -60 c-3 -5 -11 -10 -16 -10
-6 0 -7 5 -4 10 3 6 11 10 16 10 6 0 7 -4 4 -10z m-21 -99 c21 -19 23 -20 39
-4 27 27 116 24 145 -5 27 -27 47 -72 32 -72 -6 0 -10 6 -10 14 0 8 -12 24
-26 35 -37 29 -92 27 -134 -4 l-33 -24 -34 29 c-47 42 -78 39 -125 -11 -21
-22 -43 -37 -48 -34 -13 8 36 78 65 93 31 17 103 7 129 -17z m110 -142 c31 -7
72 -30 115 -62 108 -82 155 -141 179 -228 9 -34 8 -38 -16 -49 -22 -10 -28 -9
-41 8 -9 11 -31 40 -50 64 -132 168 -338 237 -515 173 -104 -38 -132 -63 -141
-127 -5 -29 -7 -58 -6 -65 2 -17 -20 -28 -29 -13 -4 7 -6 27 -4 44 3 17 6 48
7 68 3 39 14 56 89 130 46 46 69 55 178 72 40 6 181 -3 234 -15z m509 -33 c10
-15 24 -23 30 -19 6 4 8 0 4 -10 -3 -9 -3 -19 2 -21 4 -3 7 -15 5 -28 -1 -13
-3 -34 -3 -47 -1 -25 -13 -22 -17 4 -14 94 -73 141 -137 109 -45 -24 -59 -1
-16 26 46 28 106 22 132 -14z m127 30 c0 -9 -40 -13 -46 -5 -3 5 6 9 20 9 14
0 26 -2 26 -4z m-916 -143 c-14 -15 -28 -40 -31 -55 -7 -36 -33 -37 -33 -2 0
16 13 39 35 61 40 40 66 36 29 -4z m-90 -41 c-4 -26 -7 -52 -5 -59 3 -18 -20
-27 -30 -12 -14 23 -10 52 13 100 24 51 34 39 22 -29z m292 -14 c12 -10 30
-36 40 -57 14 -28 36 -49 88 -80 38 -22 79 -41 92 -41 13 0 24 -5 24 -10 0
-23 -147 25 -190 62 -9 7 -32 36 -52 63 -40 55 -82 70 -112 39 -24 -23 -39
-13 -20 14 30 43 89 48 130 10z m54 -144 c0 -8 -5 -12 -10 -9 -6 4 -8 11 -5
16 9 14 15 11 15 -7z m532 -11 c2 -10 -4 -33 -13 -52 -18 -37 -15 -91 4 -103
7 -4 29 -10 49 -13 52 -9 48 -25 -6 -25 -59 0 -88 24 -91 75 -3 44 12 85 30
85 8 0 10 10 7 25 -2 14 0 25 6 25 6 0 12 -8 14 -17z m348 -20 c-1 -18 -18
-35 -24 -24 -4 6 -4 16 -1 21 7 12 25 13 25 3z m-190 -67 c0 -3 -4 -8 -10 -11
-5 -3 -10 -1 -10 4 0 6 5 11 10 11 6 0 10 -2 10 -4z m201 -55 c29 -31 38 -51
44 -90 7 -50 1 -71 -35 -128 -12 -19 -12 -26 0 -49 20 -36 16 -115 -6 -153
-10 -17 -22 -31 -26 -31 -12 0 -10 7 8 24 8 9 18 40 21 69 4 41 2 57 -13 74
-18 22 -20 22 -63 8 -24 -9 -46 -14 -48 -11 -10 9 24 47 47 53 37 9 51 23 72
73 16 38 18 51 8 88 -12 47 -22 62 -58 81 -22 12 -22 31 0 31 6 0 28 -18 49
-39z m-852 -205 c7 -8 8 -17 3 -20 -5 -3 -13 -20 -18 -38 -7 -32 -10 -47 -13
-95 -2 -44 -28 -25 -35 27 -5 39 -2 58 15 95 23 48 30 53 48 31z m-91 -186
c-5 -17 -14 -33 -19 -36 -12 -7 -11 33 2 57 15 30 29 13 17 -21z m647 -110 c3
-5 1 -10 -4 -10 -6 0 -11 5 -11 10 0 6 2 10 4 10 3 0 8 -4 11 -10z m-45 -104
c0 -7 -6 -19 -14 -25 -21 -18 -86 -130 -102 -177 -8 -23 -18 -84 -24 -135 -6
-52 -15 -112 -20 -134 -5 -22 -14 -78 -20 -125 -6 -46 -15 -89 -19 -95 -5 -5
-11 -23 -14 -40 -5 -28 -19 -87 -46 -193 -6 -24 -19 -58 -29 -77 -30 -59 -128
-199 -168 -239 -51 -51 -139 -126 -149 -126 -4 0 -27 -18 -52 -40 -25 -22 -50
-40 -56 -40 -21 0 59 95 205 242 60 60 115 125 124 146 47 109 109 291 119
347 2 16 9 57 15 90 30 169 40 234 40 271 0 89 58 259 109 317 16 19 66 45 89
46 6 1 12 -5 12 -13z m-420 -69 c0 -19 -29 -43 -75 -63 -24 -10 -68 -47 -111
-92 l-70 -76 -32 23 c-18 12 -32 27 -32 32 0 6 -27 38 -60 71 -77 79 -77 91
-2 68 68 -21 197 -35 240 -25 17 3 50 22 74 41 45 36 68 43 68 21z m33 -168
c14 -19 14 -25 -1 -55 -12 -27 -22 -34 -45 -34 -28 0 -29 2 -24 38 7 49 25
133 34 152 4 9 9 -4 14 -32 4 -26 14 -57 22 -69z m-123 35 c-6 -16 -13 -57
-15 -92 -5 -78 -12 -102 -32 -102 -12 0 -14 8 -10 33 14 82 40 183 50 189 17
11 19 4 7 -28z m-60 -53 c0 -19 -43 -82 -53 -78 -20 6 -18 25 8 56 27 31 45
40 45 22z m997 -68 c52 -88 111 -248 120 -323 l5 -45 -56 92 c-31 51 -56 99
-56 106 0 8 -3 17 -7 21 -5 4 -8 11 -8 14 -1 4 -6 30 -13 57 -12 53 -22 125
-17 125 2 0 16 -21 32 -47z m-751 22 c-25 -19 -36 -19 -36 0 0 10 10 15 28 15
26 -1 26 -1 8 -15z m-340 -123 c-42 -76 -87 -177 -90 -205 -1 -12 -11 -42 -23
-67 -25 -53 -35 -88 -58 -195 -16 -77 -127 -325 -145 -325 -4 0 -13 -13 -20
-30 -7 -16 -16 -30 -21 -30 -5 0 -9 -6 -9 -12 -1 -7 -21 -33 -45 -58 -25 -25
-45 -48 -45 -52 0 -4 -10 -18 -23 -32 -12 -13 -38 -71 -57 -128 -18 -57 -37
-108 -41 -114 -5 -6 -19 -57 -33 -113 -13 -56 -27 -105 -30 -108 -9 -9 -23 38
-30 104 -6 55 -3 71 24 140 17 43 49 106 71 141 21 35 39 66 39 69 0 10 92
137 130 178 47 53 115 214 172 410 52 182 132 358 209 465 24 33 33 39 44 30
11 -9 8 -21 -19 -68z m106 -38 c-1 -10 -7 -41 -12 -69 -22 -110 -28 -168 -24
-210 3 -25 3 -45 0 -45 -3 0 -17 23 -32 52 -33 66 -30 120 14 211 18 36 32 71
32 77 0 7 6 10 13 7 6 -2 11 -13 9 -23z m194 -449 c-3 -13 -11 -37 -17 -52
l-10 -28 -30 33 c-46 51 -38 64 45 71 15 1 17 -4 12 -24z m-106 -35 c7 -17 23
-39 36 -49 22 -17 35 -57 16 -49 -76 33 -92 44 -87 63 2 11 5 30 5 43 0 31 15
27 30 -8z m-71 -34 c-9 -8 -10 -7 -5 7 3 10 7 24 7 30 1 7 3 4 6 -7 3 -10 -1
-23 -8 -30z m618 -46 c20 -16 37 -19 86 -16 52 3 58 2 43 -9 -18 -14 -195 -50
-203 -42 -4 5 38 87 45 87 2 0 15 -9 29 -20z m-37 -100 c0 -5 -4 -10 -10 -10
-5 0 -14 -9 -20 -21 -16 -28 1 -46 53 -55 59 -10 24 -21 -75 -23 -91 -2 -94 2
-43 72 28 38 41 47 65 47 17 0 30 -4 30 -10z m37 4 c-3 -3 -12 -4 -19 -1 -8 3
-5 6 6 6 11 1 17 -2 13 -5z m-152 -135 c-3 -4 -12 -6 -20 -3 -8 4 -13 10 -10
15 3 4 12 6 20 3 8 -4 13 -10 10 -15z m-1085 -58 c0 -4 -8 -19 -19 -32 -10
-13 -29 -44 -41 -69 -13 -25 -33 -59 -46 -76 -13 -16 -39 -63 -57 -103 -20
-44 -37 -69 -41 -62 -4 7 -15 9 -24 7 -10 -3 -23 -2 -31 3 -11 7 -2 22 42 71
56 63 106 139 143 217 11 25 24 41 32 38 6 -2 12 0 12 5 0 6 7 10 15 10 8 0
15 -4 15 -9z m337 -129 l52 -17 -94 -149 c-52 -81 -114 -170 -136 -198 -42
-50 -107 -90 -167 -103 -18 -4 -53 -23 -79 -42 -36 -27 -48 -32 -54 -21 -5 7
-9 16 -9 20 0 11 60 79 167 188 56 57 115 131 149 185 42 68 111 158 118 155
1 0 24 -8 53 -18z m694 -109 c9 -9 -81 -23 -148 -23 -22 0 -22 1 -5 20 14 17
27 19 80 16 35 -2 68 -8 73 -13z m-2269 -12 c24 -5 75 -17 113 -25 39 -9 95
-16 125 -16 30 0 96 -7 145 -15 50 -8 171 -19 270 -25 201 -12 355 -27 362
-34 3 -2 16 -85 29 -183 13 -98 44 -284 69 -413 24 -129 47 -260 51 -290 4
-30 13 -70 20 -89 8 -18 14 -40 14 -47 0 -17 -49 -19 -100 -4 -19 6 -64 15
-100 20 -36 6 -96 17 -135 25 -168 35 -295 56 -409 70 -66 8 -175 23 -241 34
-66 11 -146 22 -177 26 -57 6 -58 7 -58 38 0 18 -10 75 -21 127 -20 94 -39
188 -80 405 -11 61 -25 130 -29 155 -5 25 -16 84 -24 132 -8 48 -17 92 -20 97
-3 5 0 12 6 14 22 9 146 7 190 -2z m2059 -88 c-11 -21 -29 -51 -40 -67 -18
-28 -19 -28 -30 -8 -6 11 -11 23 -11 26 0 8 92 97 97 92 2 -2 -5 -21 -16 -43z
m-87 -104 c10 -52 -7 -69 -70 -69 -67 0 -135 -31 -219 -99 -82 -66 -146 -99
-128 -67 12 23 115 91 212 143 47 25 106 63 131 84 25 21 50 38 56 38 6 1 14
-13 18 -30z m312 -78 c16 -5 92 -23 169 -41 77 -17 187 -44 245 -60 58 -15
141 -35 185 -45 44 -9 105 -23 135 -30 30 -8 124 -17 208 -21 84 -3 151 -8
150 -10 -2 -1 -51 -10 -108 -19 -71 -12 -137 -15 -205 -12 -135 7 -294 26
-317 38 -23 12 -304 93 -432 124 -54 13 -101 26 -104 29 -9 10 17 56 31 56 8
0 27 -4 43 -9z m-300 -26 c37 -8 59 -99 59 -245 -1 -122 -2 -127 -40 -220 -57
-139 -83 -163 -250 -233 -32 -14 -177 -37 -232 -37 -27 0 -11 20 51 64 35 25
74 58 88 73 13 15 50 51 83 78 82 68 190 176 198 197 15 41 -42 49 -356 49
l-248 -1 20 29 c12 16 37 39 56 51 30 19 39 20 73 9 34 -10 45 -8 85 9 26 11
78 46 116 77 108 87 165 115 225 109 28 -3 60 -7 72 -9z m-2153 -44 c7 -29 -2
-35 -98 -67 -80 -26 -101 -28 -195 -26 -58 2 -144 4 -193 5 -62 1 -87 6 -87
15 0 8 18 12 53 13 28 1 118 2 199 4 145 2 147 2 220 38 86 42 94 43 101 18z
m1677 -263 c74 2 149 5 165 5 78 2 175 -4 175 -11 0 -5 -22 -23 -50 -41 -27
-18 -87 -62 -132 -97 -147 -116 -171 -134 -288 -210 -63 -41 -125 -85 -137
-96 -27 -26 -29 -24 -37 28 l-7 41 63 41 c35 23 79 58 98 77 19 20 72 64 118
97 79 59 97 83 69 93 -7 3 -87 6 -177 8 -139 2 -165 4 -165 17 0 9 11 16 30
18 16 2 41 12 54 21 17 13 33 16 55 11 17 -3 92 -4 166 -2z m400 -16 c0 -10
-125 -125 -197 -182 -29 -23 -53 -45 -53 -49 0 -4 -43 -40 -95 -81 -88 -70
-98 -75 -143 -75 l-48 0 34 28 c19 15 38 27 43 27 9 0 164 116 239 179 30 26
72 60 94 76 112 86 126 95 126 77z m-620 -112 c-43 -36 -77 -39 -89 -7 -5 12
-7 25 -4 30 2 4 32 7 66 7 l62 -1 -35 -29z m220 23 c0 -5 -27 -26 -61 -47 -45
-29 -63 -36 -72 -27 -6 6 -27 11 -46 11 l-36 1 37 34 c36 33 42 35 108 35 38
0 70 -3 70 -7z m-303 -98 c-4 -8 -11 -15 -17 -15 -6 0 -6 7 2 20 14 22 24 19
15 -5z m173 -4 c0 -5 -17 -22 -37 -38 -35 -27 -41 -29 -85 -20 -27 5 -48 13
-48 17 0 5 12 18 26 29 20 16 41 21 85 21 33 0 59 -4 59 -9z m-125 -91 c3 -5
-8 -18 -24 -29 l-29 -21 -6 23 c-10 39 -7 44 24 39 17 -2 32 -8 35 -12z m105
-144 c0 -28 -17 -48 -71 -82 -48 -30 -59 -30 -59 -1 0 14 18 37 51 65 58 48
79 53 79 18z"/>
<path d="M1291 1663 c-25 -17 -36 -66 -21 -92 16 -32 54 -36 94 -12 18 12 36
30 39 41 12 47 -69 93 -112 63z m73 -36 c16 -12 16 -14 -2 -35 -20 -23 -56
-29 -67 -11 -4 5 -4 21 -1 35 7 27 40 33 70 11z"/>
<path d="M3360 1313 c-14 -9 -37 -28 -52 -41 -15 -14 -36 -30 -47 -36 -82 -46
-275 -213 -461 -399 -179 -180 -190 -195 -212 -297 -17 -79 -13 -109 15 -120
12 -4 70 -12 128 -17 90 -8 115 -14 170 -43 87 -45 190 -132 269 -228 19 -23
39 -42 44 -42 5 0 33 -18 62 -40 51 -39 105 -53 118 -31 3 5 32 24 64 41 31
18 89 63 127 101 104 101 126 119 144 119 22 0 134 139 265 331 25 37 53 72
61 79 8 7 15 18 15 25 0 7 66 82 148 167 132 138 233 270 214 281 -4 3 -52 12
-107 22 -152 26 -242 44 -395 80 -103 25 -342 26 -385 3 -32 -17 -153 -133
-323 -308 -56 -58 -119 -120 -139 -139 -234 -214 -239 -219 -249 -203 -7 11
-27 16 -63 16 -48 1 -55 -2 -87 -37 -23 -24 -34 -46 -32 -60 4 -32 32 -28 36
5 6 53 84 86 127 54 17 -12 18 -17 6 -39 -17 -33 -7 -47 33 -47 18 0 81 -7
141 -15 86 -12 129 -25 204 -58 53 -24 150 -58 216 -76 66 -19 124 -37 129
-42 10 -9 -79 -96 -106 -105 -10 -3 -18 -10 -18 -15 0 -20 -51 -7 -92 24 -24
17 -62 45 -86 60 -24 15 -60 43 -80 61 -40 35 -59 44 -172 76 -41 12 -88 26
-104 31 -36 11 -183 12 -190 1 -5 -9 -59 -8 -74 2 -15 9 9 128 34 168 13 20
40 56 61 80 70 80 307 308 406 390 53 45 97 85 97 89 0 4 12 10 26 13 15 4 47
24 73 45 78 65 117 76 196 57 l30 -7 -24 20 c-29 26 -123 28 -161 4z m520 -68
c47 -8 119 -22 160 -30 41 -9 136 -25 210 -36 74 -11 136 -22 139 -25 11 -10
-84 -129 -199 -250 -121 -127 -158 -173 -258 -317 -26 -37 -81 -112 -122 -167
-84 -112 -71 -107 -200 -77 -161 37 -273 72 -375 116 -147 64 -140 62 -225 67
-107 6 -160 14 -160 24 0 5 46 51 102 102 56 51 209 200 339 330 130 130 251
246 269 257 41 25 198 28 320 6z m-828 -875 c29 -11 68 -34 87 -51 19 -17 53
-43 75 -57 23 -15 61 -42 85 -60 93 -70 88 -70 185 5 47 36 88 74 91 84 7 21
22 24 45 9 12 -7 11 -13 -10 -35 -14 -15 -38 -33 -55 -40 -16 -7 -46 -28 -65
-46 -19 -19 -51 -45 -71 -57 l-36 -22 -39 33 c-21 18 -61 46 -88 63 -27 16
-60 37 -75 46 -14 10 -39 25 -56 34 -16 9 -47 32 -68 50 -20 19 -41 34 -46 34
-5 0 -11 7 -15 15 -7 19 -7 19 56 -5z m170 -189 c166 -127 165 -126 272 -41
42 33 76 56 76 51 0 -22 -183 -151 -214 -151 -24 0 -150 91 -183 132 -56 69
-35 72 49 9z"/>
<path d="M3370 952 c0 -18 62 -33 175 -42 207 -18 319 -32 358 -46 22 -8 51
-14 64 -14 38 0 25 33 -17 42 -71 15 -156 30 -195 33 -23 1 -74 6 -115 9 -41
4 -97 9 -125 12 -27 2 -71 7 -97 10 -29 4 -48 2 -48 -4z"/>
<path d="M3310 828 c0 -20 135 -45 258 -47 53 -1 129 -9 167 -17 39 -8 82 -18
98 -21 36 -7 34 8 -4 31 -24 14 -65 21 -158 28 -137 9 -290 25 -333 34 -21 5
-28 2 -28 -8z"/>
<path d="M3117 684 c-16 -16 10 -24 77 -24 40 0 98 -5 127 -10 30 -6 70 -13
89 -16 84 -11 186 -36 201 -50 19 -17 39 -18 39 -1 0 20 -62 55 -120 66 -152
30 -233 41 -316 41 -50 0 -94 -3 -97 -6z"/>
<path d="M2800 1128 c-25 -12 -99 -47 -165 -79 -66 -31 -138 -62 -160 -69 -21
-7 -98 -41 -170 -75 -71 -34 -151 -69 -177 -79 -44 -16 -138 -103 -138 -126 0
-17 39 -21 87 -9 49 12 68 20 248 104 55 26 132 58 170 72 39 14 122 49 185
78 63 28 142 63 174 76 70 28 100 63 91 102 -7 25 -11 27 -54 27 -25 -1 -66
-11 -91 -22z m99 -7 c24 -15 -21 -71 -57 -71 -5 0 -17 11 -26 25 -17 25 -16
26 16 40 39 17 48 18 67 6z m-111 -65 c10 -24 7 -36 -10 -36 -10 0 -27 42 -21
53 8 13 20 7 31 -17z m-60 -27 c2 -21 -8 -28 -85 -63 -49 -22 -110 -48 -138
-57 -52 -17 -144 -57 -207 -89 -20 -10 -39 -16 -42 -12 -15 14 -4 39 22 49 15
6 68 31 118 55 50 23 112 52 139 63 26 11 76 34 109 51 34 17 66 30 71 29 6
-1 11 -12 13 -26z m-500 -225 c4 -26 -65 -54 -79 -33 -14 22 -11 28 24 43 39
17 51 15 55 -10z m-118 -68 c-7 -9 -23 -16 -37 -16 l-24 0 23 30 c19 27 24 29
37 16 12 -12 12 -18 1 -30z"/>
</g>
</svg>
