<svg width="830" height="688" viewBox="0 0 830 688" fill="none" xmlns="http://www.w3.org/2000/svg">
<ellipse cx="376" cy="344" rx="348" ry="344" fill="#212534"/>
<rect y="305" width="346" height="290" fill="#FFD76B"/>
<path d="M502.96 211.273V246.784H361.625V211.273H502.96ZM402.818 145.932H444.722V405.875C444.722 417.712 446.438 426.59 449.871 432.509C453.422 438.309 457.92 442.215 463.365 444.227C468.929 446.121 474.788 447.068 480.943 447.068C485.56 447.068 489.348 446.831 492.307 446.358C495.266 445.766 497.634 445.293 499.409 444.938L507.932 482.58C505.091 483.645 501.125 484.71 496.036 485.776C490.946 486.959 484.494 487.551 476.682 487.551C464.845 487.551 453.244 485.006 441.881 479.916C430.635 474.826 421.284 467.073 413.827 456.656C406.488 446.24 402.818 433.1 402.818 417.239V145.932ZM673.859 489.682C649.237 489.682 627.635 483.822 609.05 472.104C590.585 460.385 576.143 443.991 565.727 422.92C555.428 401.85 550.279 377.229 550.279 349.057C550.279 320.648 555.428 295.849 565.727 274.661C576.143 253.472 590.585 237.018 609.05 225.3C627.635 213.581 649.237 207.722 673.859 207.722C698.48 207.722 720.023 213.581 738.489 225.3C757.074 237.018 771.515 253.472 781.813 274.661C792.23 295.849 797.438 320.648 797.438 349.057C797.438 377.229 792.23 401.85 781.813 422.92C771.515 443.991 757.074 460.385 738.489 472.104C720.023 483.822 698.48 489.682 673.859 489.682ZM673.859 452.04C692.561 452.04 707.95 447.246 720.023 437.658C732.097 428.07 741.034 415.463 746.835 399.838C752.635 384.213 755.535 367.286 755.535 349.057C755.535 330.828 752.635 313.841 746.835 298.098C741.034 282.355 732.097 269.63 720.023 259.923C707.95 250.217 692.561 245.364 673.859 245.364C655.156 245.364 639.768 250.217 627.694 259.923C615.62 269.63 606.683 282.355 600.883 298.098C595.083 313.841 592.183 330.828 592.183 349.057C592.183 367.286 595.083 384.213 600.883 399.838C606.683 415.463 615.62 428.07 627.694 437.658C639.768 447.246 655.156 452.04 673.859 452.04Z" fill="#FFD76B"/>
<path d="M90.6676 549.841C79.304 549.841 69.272 546.97 60.5717 541.229C51.8715 535.429 45.0651 527.262 40.1527 516.727C35.2403 506.132 32.7841 493.615 32.7841 479.173C32.7841 464.85 35.2403 452.421 40.1527 441.886C45.0651 431.351 51.901 423.213 60.6605 417.472C69.42 411.731 79.5407 408.861 91.0227 408.861C99.9006 408.861 106.914 410.34 112.063 413.3C117.272 416.2 121.237 419.514 123.96 423.243C126.741 426.912 128.902 429.931 130.44 432.298H132.216V365.182H153.168V547H132.926V526.048H130.44C128.902 528.534 126.712 531.671 123.871 535.459C121.03 539.187 116.976 542.531 111.708 545.491C106.441 548.391 99.4271 549.841 90.6676 549.841ZM93.5085 531.02C101.913 531.02 109.015 528.83 114.815 524.45C120.616 520.011 125.025 513.886 128.043 506.073C131.062 498.201 132.571 489.116 132.571 478.818C132.571 468.638 131.091 459.731 128.132 452.096C125.173 444.402 120.793 438.424 114.993 434.163C109.193 429.842 102.031 427.682 93.5085 427.682C84.6307 427.682 77.2325 429.96 71.3139 434.518C65.4545 439.016 61.0452 445.142 58.0859 452.895C55.1858 460.589 53.7358 469.23 53.7358 478.818C53.7358 488.525 55.2154 497.343 58.1747 505.274C61.1932 513.146 65.6321 519.42 71.4915 524.095C77.41 528.712 84.7491 531.02 93.5085 531.02ZM249.847 549.841C237.537 549.841 226.735 546.911 217.443 541.052C208.21 535.192 200.99 526.995 195.781 516.46C190.632 505.925 188.058 493.615 188.058 479.528C188.058 465.324 190.632 452.924 195.781 442.33C200.99 431.736 208.21 423.509 217.443 417.65C226.735 411.79 237.537 408.861 249.847 408.861C262.158 408.861 272.93 411.79 282.163 417.65C291.455 423.509 298.675 431.736 303.825 442.33C309.033 452.924 311.637 465.324 311.637 479.528C311.637 493.615 309.033 505.925 303.825 516.46C298.675 526.995 291.455 535.192 282.163 541.052C272.93 546.911 262.158 549.841 249.847 549.841ZM249.847 531.02C259.199 531.02 266.893 528.623 272.93 523.829C278.967 519.035 283.435 512.732 286.335 504.919C289.235 497.107 290.685 488.643 290.685 479.528C290.685 470.414 289.235 461.921 286.335 454.049C283.435 446.177 278.967 439.815 272.93 434.962C266.893 430.108 259.199 427.682 249.847 427.682C240.496 427.682 232.802 430.108 226.765 434.962C220.728 439.815 216.259 446.177 213.359 454.049C210.459 461.921 209.009 470.414 209.009 479.528C209.009 488.643 210.459 497.107 213.359 504.919C216.259 512.732 220.728 519.035 226.765 523.829C232.802 528.623 240.496 531.02 249.847 531.02Z" fill="#212534"/>
</svg>
