<svg width="1045" height="148" viewBox="0 0 1045 148" fill="none" xmlns="http://www.w3.org/2000/svg">
<path d="M110.762 5.76953C107.051 5.76953 103.535 6.55078 100.215 8.11328C96.8945 9.67578 93.737 11.8242 90.7422 14.5586C87.8125 17.293 85.0456 20.5482 82.4414 24.3242C79.8372 28.1003 77.3958 32.1693 75.1172 36.5312C72.8385 40.8932 70.7227 45.4831 68.7695 50.3008C66.8815 55.1185 65.1562 59.9688 63.5938 64.8516C72.3828 58.5365 80.0977 52.5469 86.7383 46.8828C93.3789 41.2188 98.9453 36.043 103.438 31.3555C107.93 26.668 111.283 22.5339 113.496 18.9531C115.775 15.3073 116.914 12.3451 116.914 10.0664C116.914 8.76432 116.491 7.72266 115.645 6.94141C114.863 6.16016 113.236 5.76953 110.762 5.76953ZM120.625 63.3867C122.188 64.168 122.969 65.112 122.969 66.2188C122.969 67.9115 122.318 69.474 121.016 70.9062C119.779 72.3385 118.118 73.6406 116.035 74.8125C114.017 75.9193 111.706 76.8958 109.102 77.7422C106.562 78.5885 103.991 79.3047 101.387 79.8906C98.8477 80.4766 96.4062 80.9323 94.0625 81.2578C91.4583 81.5833 89.5052 81.7135 88.2031 81.6484C83.125 81.5182 78.112 81.4206 73.1641 81.3555L58.8086 81.1602C56.8555 88.4518 55.3255 94.7018 54.2188 99.9102C53.112 105.053 52.2656 109.546 51.6797 113.387C51.1589 117.163 50.8333 120.451 50.7031 123.25C50.5729 126.049 50.5078 128.751 50.5078 131.355C50.5078 132.788 50.7031 133.927 51.0938 134.773C51.4844 135.62 52.1354 136.043 53.0469 136.043C56.237 136.043 59.7526 134.969 63.5938 132.82C67.5 130.672 71.862 127.938 76.6797 124.617L92.8906 113.582C101.745 107.527 108.385 103.621 112.812 101.863C113.138 101.733 113.789 101.44 114.766 100.984C115.286 100.789 115.775 100.691 116.23 100.691C117.663 100.691 118.379 101.44 118.379 102.938C118.379 103.914 117.956 105.053 117.109 106.355C116.198 107.592 114.766 108.797 112.812 109.969C102.852 115.958 95.4948 120.646 90.7422 124.031L74.043 136.141C69.0951 139.656 64.5703 142.456 60.4688 144.539C56.3021 146.622 52.1029 147.664 47.8711 147.664C44.2253 147.664 41.3932 146.688 39.375 144.734C37.4219 142.781 35.957 140.405 34.9805 137.605C34.069 134.741 33.5156 131.681 33.3203 128.426C33.125 125.171 33.0273 122.273 33.0273 119.734C33.0273 114.786 33.2878 109.871 33.8086 104.988C34.3945 100.105 35.1432 95.418 36.0547 90.9258L20.7227 100.594L5 109.969C4.67448 110.164 4.31641 110.262 3.92578 110.262C3.20964 110.262 2.52604 109.969 1.875 109.383C1.22396 108.732 0.898438 107.951 0.898438 107.039C0.898438 106.323 1.19141 105.509 1.77734 104.598C2.36328 103.686 3.4375 102.775 5 101.863L22.2852 92C27.7539 88.7448 33.0273 85.457 38.1055 82.1367L38.3008 81.2578L25.8008 81.5508C25.1497 81.5508 24.5312 81.5833 23.9453 81.6484C23.3594 81.7135 22.806 81.7461 22.2852 81.7461C21.1784 81.7461 20.2669 81.4206 19.5508 80.7695C18.8997 80.0534 18.5091 79.2721 18.3789 78.4258C18.3789 77.7096 18.9323 77.026 20.0391 76.375C21.1458 75.724 22.7083 75.138 24.7266 74.6172C26.7448 74.0312 29.1536 73.5104 31.9531 73.0547C34.7526 72.5339 37.8451 72.0781 41.2305 71.6875C45.1367 59.4479 49.3685 48.8359 53.9258 39.8516C58.4831 30.8672 63.5938 23.4453 69.2578 17.5859C74.987 11.7266 81.3672 7.36458 88.3984 4.5C95.4297 1.63542 103.372 0.203125 112.227 0.203125C116.328 0.203125 119.29 0.854167 121.113 2.15625C123.001 3.39323 123.945 5.15104 123.945 7.42969C123.945 10.5547 122.546 14.3307 119.746 18.7578C117.012 23.1849 113.138 28.1003 108.125 33.5039C103.177 38.8424 97.2201 44.5391 90.2539 50.5938C83.3529 56.5833 75.7031 62.7357 67.3047 69.0508C71.4714 68.6602 75.7031 68.3021 80 67.9766L92.6953 66.9023C96.862 66.5768 100.931 66.2188 104.902 65.8281C108.939 65.4375 112.78 65.0143 116.426 64.5586C117.142 64.3633 117.663 64.1029 117.988 63.7773C118.314 63.3867 118.867 63.1914 119.648 63.1914C119.909 63.1914 120.234 63.2565 120.625 63.3867ZM204.512 62.6055C208.223 62.6055 211.51 63.3542 214.375 64.8516C217.305 66.349 219.746 68.3997 221.699 71.0039C223.717 73.543 225.247 76.5378 226.289 79.9883C227.331 83.4388 227.852 87.1172 227.852 91.0234C227.852 93.3021 227.591 95.8086 227.07 98.543C226.549 101.277 225.801 104.109 224.824 107.039C223.848 109.904 222.643 112.768 221.211 115.633C219.844 118.497 218.314 121.134 216.621 123.543C217.858 122.892 219.355 122.078 221.113 121.102C222.871 120.125 224.727 119.083 226.68 117.977C228.698 116.805 230.781 115.6 232.93 114.363C235.143 113.126 237.292 111.922 239.375 110.75L254.512 101.863C254.967 101.603 255.586 101.473 256.367 101.473C257.865 101.473 258.613 102.254 258.613 103.816C258.613 105.965 257.246 108.016 254.512 109.969C252.168 111.531 249.108 113.484 245.332 115.828C241.556 118.172 237.454 120.483 233.027 122.762C228.665 124.975 224.206 126.961 219.648 128.719C215.156 130.411 210.957 131.388 207.051 131.648C201.973 135.424 196.016 138.484 189.18 140.828C182.344 143.107 174.368 144.246 165.254 144.246C160.762 144.246 156.953 143.855 153.828 143.074C150.768 142.293 148.294 141.154 146.406 139.656C144.518 138.159 143.151 136.336 142.305 134.188C141.458 131.974 141.035 129.435 141.035 126.57C141.035 122.404 141.882 117.944 143.574 113.191C145.267 108.439 147.35 103.816 149.824 99.3242C152.363 94.7669 155.065 90.5352 157.93 86.6289C160.794 82.7227 163.398 79.5 165.742 76.9609C163.659 78.7839 160.697 80.9648 156.855 83.5039C153.079 86.043 148.783 88.7773 143.965 91.707C139.212 94.5716 134.134 97.5664 128.73 100.691C123.392 103.816 118.086 106.909 112.812 109.969C112.031 110.294 111.315 110.457 110.664 110.457C109.818 110.457 109.167 110.229 108.711 109.773C108.255 109.253 108.027 108.602 108.027 107.82C108.027 106.909 108.418 105.965 109.199 104.988C109.915 103.947 111.12 102.905 112.812 101.863C122.708 96.069 131.139 91.0885 138.105 86.9219C145.072 82.6901 151.094 79.1094 156.172 76.1797C161.25 73.25 165.677 70.9062 169.453 69.1484C173.229 67.3906 176.842 66.0234 180.293 65.0469C183.809 64.0703 187.454 63.4193 191.23 63.0938C195.007 62.7682 199.434 62.6055 204.512 62.6055ZM165.449 135.848C169.551 135.848 173.555 135.001 177.461 133.309C181.367 131.616 185.176 129.305 188.887 126.375C188.04 125.398 187.454 124.292 187.129 123.055C186.803 121.818 186.641 120.548 186.641 119.246C186.641 116.967 187.389 115.275 188.887 114.168C190.384 112.996 192.174 112.41 194.258 112.41C196.471 112.41 198.62 113.061 200.703 114.363C202.786 112.866 204.772 111.076 206.66 108.992C208.548 106.909 210.176 104.695 211.543 102.352C212.975 100.008 214.082 97.599 214.863 95.125C215.71 92.651 216.133 90.2422 216.133 87.8984C216.133 85.8802 215.742 83.9596 214.961 82.1367C214.245 80.2487 213.04 78.6211 211.348 77.2539C209.72 75.8867 207.539 74.8125 204.805 74.0312C202.135 73.1849 198.88 72.7617 195.039 72.7617C191.849 72.7617 188.659 73.6081 185.469 75.3008C182.344 76.9935 179.316 79.2721 176.387 82.1367C173.522 84.9362 170.82 88.1589 168.281 91.8047C165.807 95.3854 163.659 99.0964 161.836 102.938C160.013 106.779 158.581 110.555 157.539 114.266C156.497 117.977 155.977 121.362 155.977 124.422C155.977 127.807 156.725 130.574 158.223 132.723C159.72 134.806 162.129 135.848 165.449 135.848ZM270.918 105.77C269.811 104.988 269.095 104.077 268.77 103.035C268.444 101.993 268.281 100.854 268.281 99.6172C268.281 98.8359 268.997 98.2174 270.43 97.7617C271.927 97.2409 273.848 96.8503 276.191 96.5898C278.6 96.3294 281.302 96.1667 284.297 96.1016C287.357 95.9714 290.449 95.9062 293.574 95.9062C296.829 95.9062 300.898 95.9714 305.781 96.1016C310.729 96.2318 316.1 96.3945 321.895 96.5898C327.689 96.7852 333.743 97.013 340.059 97.2734C346.374 97.5339 352.591 97.7943 358.711 98.0547C364.831 98.3151 370.625 98.5755 376.094 98.8359C381.628 99.0964 386.478 99.3242 390.645 99.5195C394.811 99.6497 398.132 99.8125 400.605 100.008C403.079 100.138 404.316 100.236 404.316 100.301C405.749 100.431 407.083 100.984 408.32 101.961C409.622 102.938 410.273 103.914 410.273 104.891C410.273 105.672 409.883 106.29 409.102 106.746C408.32 107.137 406.725 107.495 404.316 107.82C401.908 108.146 398.913 108.439 395.332 108.699C391.816 108.895 387.812 109.09 383.32 109.285C378.828 109.415 374.108 109.546 369.16 109.676C364.277 109.741 359.232 109.806 354.023 109.871C348.88 109.936 343.835 109.969 338.887 109.969C334.785 109.969 330.814 109.969 326.973 109.969C323.197 109.969 319.714 109.969 316.523 109.969C313.398 109.904 310.632 109.839 308.223 109.773C305.879 109.708 304.023 109.643 302.656 109.578C301.94 109.578 300.768 109.578 299.141 109.578C297.578 109.513 295.755 109.448 293.672 109.383C291.589 109.318 289.375 109.22 287.031 109.09C284.688 108.895 282.441 108.667 280.293 108.406C278.21 108.081 276.322 107.723 274.629 107.332C272.936 106.876 271.699 106.355 270.918 105.77ZM443.281 118.172C443.281 115.763 443.997 112.866 445.43 109.48C446.927 106.095 448.848 102.645 451.191 99.1289C453.6 95.6133 456.302 92.2604 459.297 89.0703C462.292 85.8151 465.286 83.1784 468.281 81.1602L419.648 109.969C419.388 110.099 419.16 110.197 418.965 110.262C418.704 110.262 418.477 110.262 418.281 110.262C417.565 110.262 417.012 110.001 416.621 109.48C416.23 108.96 416.035 108.309 416.035 107.527C416.035 106.616 416.328 105.639 416.914 104.598C417.5 103.491 418.411 102.579 419.648 101.863L446.504 85.5547C450.15 83.3411 454.284 80.9974 458.906 78.5234C463.529 75.9844 468.314 73.6732 473.262 71.5898C478.275 69.5065 483.32 67.7812 488.398 66.4141C493.477 64.9818 498.294 64.2656 502.852 64.2656C507.083 64.2656 510.827 64.9167 514.082 66.2188L539.57 14.7539C540.221 13.3867 540.905 11.9219 541.621 10.3594C542.402 8.73177 543.379 7.23438 544.551 5.86719C545.788 4.5 547.318 3.36068 549.141 2.44922C551.029 1.47266 553.438 0.984375 556.367 0.984375C557.279 0.984375 557.832 1.3099 558.027 1.96094C558.288 2.54688 558.418 3.32812 558.418 4.30469C558.288 5.21615 558.06 6.25781 557.734 7.42969C557.409 8.53646 557.051 9.64323 556.66 10.75C556.335 11.8568 556.009 12.8659 555.684 13.7773C555.358 14.6888 555.098 15.3724 554.902 15.8281L525.801 79.1094C524.368 83.3411 522.578 87.7357 520.43 92.293C518.346 96.7852 516.296 101.18 514.277 105.477C512.324 109.708 510.632 113.68 509.199 117.391C507.832 121.102 507.148 124.259 507.148 126.863C507.148 127.775 507.246 128.654 507.441 129.5C507.702 130.346 508.158 130.77 508.809 130.77C509.655 130.77 510.924 130.444 512.617 129.793C514.375 129.142 516.361 128.23 518.574 127.059C520.788 125.887 523.164 124.52 525.703 122.957C528.307 121.329 530.879 119.604 533.418 117.781L558.809 101.863C559.329 101.603 559.72 101.473 559.98 101.473C560.501 101.473 560.892 101.733 561.152 102.254C561.478 102.775 561.641 103.393 561.641 104.109C561.641 105.216 561.38 106.323 560.859 107.43C560.404 108.471 559.72 109.318 558.809 109.969C555.098 112.443 551.257 115.014 547.285 117.684C543.379 120.288 539.44 122.892 535.469 125.496C531.497 128.035 527.591 130.477 523.75 132.82C519.974 135.164 516.328 137.312 512.812 139.266C507.799 142.065 503.307 143.465 499.336 143.465C496.732 143.465 494.974 142.749 494.062 141.316C493.151 139.884 492.695 138.029 492.695 135.75C492.695 134.383 492.793 132.983 492.988 131.551C493.249 130.053 493.607 128.458 494.062 126.766C492.305 129.305 490.286 131.583 488.008 133.602C485.729 135.62 483.288 137.345 480.684 138.777C478.145 140.21 475.475 141.284 472.676 142C469.941 142.781 467.272 143.172 464.668 143.172C461.803 143.172 459.069 142.716 456.465 141.805C453.861 140.828 451.582 139.331 449.629 137.312C447.676 135.229 446.113 132.625 444.941 129.5C443.835 126.375 443.281 122.599 443.281 118.172ZM506.953 84.1875C507.214 83.4714 507.539 82.5924 507.93 81.5508C508.385 80.5091 508.809 79.5 509.199 78.5234C509.655 77.5469 510.013 76.668 510.273 75.8867C510.599 75.0404 510.762 74.4544 510.762 74.1289C510.762 73.7383 510.013 73.4453 508.516 73.25C507.018 73.0547 505.033 72.957 502.559 72.957C499.303 72.957 495.983 73.8359 492.598 75.5938C489.277 77.2865 486.022 79.5326 482.832 82.332C479.707 85.1315 476.745 88.3542 473.945 92C471.211 95.5807 468.802 99.2917 466.719 103.133C464.701 106.909 463.073 110.652 461.836 114.363C460.664 118.074 460.078 121.427 460.078 124.422C460.078 128.458 460.762 131.355 462.129 133.113C463.496 134.806 465.286 135.652 467.5 135.652C470.495 135.652 473.717 134.383 477.168 131.844C480.684 129.305 484.199 125.789 487.715 121.297C491.23 116.74 494.648 111.303 497.969 104.988C501.289 98.6732 504.284 91.7396 506.953 84.1875ZM650.605 62.6055C654.316 62.6055 657.604 63.3542 660.469 64.8516C663.398 66.349 665.84 68.3997 667.793 71.0039C669.811 73.543 671.341 76.5378 672.383 79.9883C673.424 83.4388 673.945 87.1172 673.945 91.0234C673.945 93.3021 673.685 95.8086 673.164 98.543C672.643 101.277 671.895 104.109 670.918 107.039C669.941 109.904 668.737 112.768 667.305 115.633C665.938 118.497 664.408 121.134 662.715 123.543C663.952 122.892 665.449 122.078 667.207 121.102C668.965 120.125 670.82 119.083 672.773 117.977C674.792 116.805 676.875 115.6 679.023 114.363C681.237 113.126 683.385 111.922 685.469 110.75L700.605 101.863C701.061 101.603 701.68 101.473 702.461 101.473C703.958 101.473 704.707 102.254 704.707 103.816C704.707 105.965 703.34 108.016 700.605 109.969C698.262 111.531 695.202 113.484 691.426 115.828C687.65 118.172 683.548 120.483 679.121 122.762C674.759 124.975 670.299 126.961 665.742 128.719C661.25 130.411 657.051 131.388 653.145 131.648C648.066 135.424 642.109 138.484 635.273 140.828C628.438 143.107 620.462 144.246 611.348 144.246C606.855 144.246 603.047 143.855 599.922 143.074C596.862 142.293 594.388 141.154 592.5 139.656C590.612 138.159 589.245 136.336 588.398 134.188C587.552 131.974 587.129 129.435 587.129 126.57C587.129 122.404 587.975 117.944 589.668 113.191C591.361 108.439 593.444 103.816 595.918 99.3242C598.457 94.7669 601.159 90.5352 604.023 86.6289C606.888 82.7227 609.492 79.5 611.836 76.9609C609.753 78.7839 606.79 80.9648 602.949 83.5039C599.173 86.043 594.876 88.7773 590.059 91.707C585.306 94.5716 580.228 97.5664 574.824 100.691C569.486 103.816 564.18 106.909 558.906 109.969C558.125 110.294 557.409 110.457 556.758 110.457C555.911 110.457 555.26 110.229 554.805 109.773C554.349 109.253 554.121 108.602 554.121 107.82C554.121 106.909 554.512 105.965 555.293 104.988C556.009 103.947 557.214 102.905 558.906 101.863C568.802 96.069 577.233 91.0885 584.199 86.9219C591.165 82.6901 597.188 79.1094 602.266 76.1797C607.344 73.25 611.771 70.9062 615.547 69.1484C619.323 67.3906 622.936 66.0234 626.387 65.0469C629.902 64.0703 633.548 63.4193 637.324 63.0938C641.1 62.7682 645.527 62.6055 650.605 62.6055ZM611.543 135.848C615.645 135.848 619.648 135.001 623.555 133.309C627.461 131.616 631.27 129.305 634.98 126.375C634.134 125.398 633.548 124.292 633.223 123.055C632.897 121.818 632.734 120.548 632.734 119.246C632.734 116.967 633.483 115.275 634.98 114.168C636.478 112.996 638.268 112.41 640.352 112.41C642.565 112.41 644.714 113.061 646.797 114.363C648.88 112.866 650.866 111.076 652.754 108.992C654.642 106.909 656.27 104.695 657.637 102.352C659.069 100.008 660.176 97.599 660.957 95.125C661.803 92.651 662.227 90.2422 662.227 87.8984C662.227 85.8802 661.836 83.9596 661.055 82.1367C660.339 80.2487 659.134 78.6211 657.441 77.2539C655.814 75.8867 653.633 74.8125 650.898 74.0312C648.229 73.1849 644.974 72.7617 641.133 72.7617C637.943 72.7617 634.753 73.6081 631.562 75.3008C628.438 76.9935 625.41 79.2721 622.48 82.1367C619.616 84.9362 616.914 88.1589 614.375 91.8047C611.901 95.3854 609.753 99.0964 607.93 102.938C606.107 106.779 604.674 110.555 603.633 114.266C602.591 117.977 602.07 121.362 602.07 124.422C602.07 127.807 602.819 130.574 604.316 132.723C605.814 134.806 608.223 135.848 611.543 135.848ZM869.062 109.969C858.971 115.763 850.41 120.809 843.379 125.105C836.348 129.337 830.358 132.853 825.41 135.652C820.462 138.387 816.263 140.438 812.812 141.805C809.427 143.107 806.335 143.758 803.535 143.758C800.801 143.758 798.457 143.432 796.504 142.781C794.616 142.13 793.053 141.251 791.816 140.145C790.579 139.038 789.668 137.703 789.082 136.141C788.561 134.578 788.301 132.885 788.301 131.062C788.301 129.695 788.594 128.296 789.18 126.863C789.766 125.431 790.482 123.966 791.328 122.469C792.24 120.971 793.184 119.409 794.16 117.781C795.137 116.089 796.048 114.298 796.895 112.41L811.738 79.207L759.297 109.969C758.451 110.294 757.865 110.457 757.539 110.457C756.758 110.457 756.074 110.197 755.488 109.676C754.837 109.155 754.512 108.471 754.512 107.625C754.512 106.844 754.87 105.965 755.586 104.988C756.237 104.012 757.474 102.97 759.297 101.863L784.59 87.1172C787.91 85.1641 791.263 83.2109 794.648 81.2578C798.034 79.3047 801.191 77.4818 804.121 75.7891C807.116 74.0964 809.785 72.599 812.129 71.2969C814.538 69.9297 816.393 68.888 817.695 68.1719H830.293C830.553 68.3672 830.781 68.6927 830.977 69.1484C831.172 69.6042 831.27 70.2878 831.27 71.1992C831.27 72.8919 830.781 75.3008 829.805 78.4258C828.828 81.4857 827.591 84.9362 826.094 88.7773C824.661 92.6185 823.034 96.6549 821.211 100.887C819.453 105.053 817.793 109.025 816.23 112.801C814.668 116.512 813.04 120.223 811.348 123.934C809.655 127.645 807.962 131.453 806.27 135.359C808.027 135.359 810.794 134.48 814.57 132.723C818.411 130.965 823.034 128.589 828.438 125.594C833.906 122.534 840.059 118.986 846.895 114.949C853.796 110.848 861.185 106.486 869.062 101.863C869.323 101.603 869.811 101.473 870.527 101.473C871.309 101.473 872.025 101.733 872.676 102.254C873.392 102.775 873.75 103.491 873.75 104.402C873.75 105.184 873.392 106.062 872.676 107.039C872.025 107.951 870.82 108.927 869.062 109.969ZM842.109 33.9922C842.5 33.9922 843.216 34.0247 844.258 34.0898C845.365 34.0898 846.602 34.1549 847.969 34.2852C849.336 34.4154 850.768 34.6432 852.266 34.9688C853.763 35.2292 855.13 35.6523 856.367 36.2383C857.604 36.7591 858.646 37.4427 859.492 38.2891C860.339 39.1354 860.794 40.1771 860.859 41.4141L846.699 52.1562L840.254 55.1836C839.082 55.1836 838.171 54.8581 837.52 54.207C836.868 53.556 836.38 52.8724 836.055 52.1562L842.109 33.9922ZM987.129 78.7188C984.655 78.7188 981.562 79.4349 977.852 80.8672C974.141 82.2344 970.072 84.1549 965.645 86.6289C961.217 89.0378 956.595 91.9023 951.777 95.2227C947.025 98.543 942.337 102.156 937.715 106.062C933.158 109.969 928.796 114.103 924.629 118.465C920.527 122.762 916.947 127.091 913.887 131.453C913.561 131.779 913.398 132.527 913.398 133.699C913.398 134.806 913.203 135.978 912.812 137.215C912.487 138.452 911.803 139.559 910.762 140.535C909.72 141.512 907.995 142 905.586 142C903.893 142 902.559 141.805 901.582 141.414C900.671 141.023 899.954 140.503 899.434 139.852C898.978 139.135 898.685 138.322 898.555 137.41C898.424 136.434 898.359 135.359 898.359 134.188C898.359 133.016 898.685 131.29 899.336 129.012C899.987 126.733 900.833 124.096 901.875 121.102C902.917 118.107 904.089 114.884 905.391 111.434C906.693 107.983 907.995 104.533 909.297 101.082C910.664 97.6315 911.934 94.2786 913.105 91.0234C914.342 87.7682 915.384 84.8385 916.23 82.2344L869.062 109.969C868.737 110.034 868.477 110.099 868.281 110.164C868.021 110.164 867.826 110.164 867.695 110.164C866.784 110.164 866.133 109.936 865.742 109.48C865.286 108.96 865.059 108.341 865.059 107.625C865.059 106.714 865.417 105.737 866.133 104.695C866.784 103.589 867.76 102.645 869.062 101.863C878.828 96.069 886.868 91.3164 893.184 87.6055C899.564 83.8294 904.674 80.8021 908.516 78.5234C912.357 76.2448 915.221 74.5521 917.109 73.4453C919.062 72.3385 920.527 71.5247 921.504 71.0039C922.415 70.4831 923.229 70.125 923.945 69.9297C924.727 69.7344 925.573 69.6367 926.484 69.6367C928.372 69.6367 929.902 70.1901 931.074 71.2969C932.311 72.4036 932.93 73.6406 932.93 75.0078C932.93 76.375 932.507 78.263 931.66 80.6719C930.814 83.0156 929.772 85.5872 928.535 88.3867C927.298 91.1862 926.029 94.0508 924.727 96.9805C923.424 99.8451 922.318 102.514 921.406 104.988C921.016 105.965 920.69 106.779 920.43 107.43C920.234 108.016 919.974 108.699 919.648 109.48C919.388 110.262 918.997 111.271 918.477 112.508C917.956 113.68 917.207 115.34 916.23 117.488C918.965 113.973 922.155 110.294 925.801 106.453C929.512 102.612 933.516 98.8685 937.812 95.2227C942.174 91.5117 946.797 87.9961 951.68 84.6758C956.628 81.3555 961.706 78.4583 966.914 75.9844C972.188 73.4453 977.559 71.4596 983.027 70.0273C988.496 68.5299 993.932 67.7812 999.336 67.7812C1002.66 67.7812 1004.93 68.4974 1006.17 69.9297C1007.47 71.2969 1008.12 73.1849 1008.12 75.5938C1008.12 77.5469 1007.77 79.9232 1007.05 82.7227C1006.33 85.5221 1005.36 88.582 1004.12 91.9023C1002.88 95.1576 1001.48 98.6732 999.922 102.449C998.359 106.16 996.699 109.936 994.941 113.777C993.249 117.553 991.523 121.362 989.766 125.203C988.073 129.044 986.478 132.723 984.98 136.238C988.691 134.741 992.565 132.788 996.602 130.379C1000.64 127.97 1004.93 125.268 1009.49 122.273C1014.11 119.279 1018.96 116.056 1024.04 112.605C1029.19 109.09 1034.69 105.509 1040.55 101.863C1041 101.603 1041.62 101.473 1042.4 101.473C1043.96 101.473 1044.75 102.352 1044.75 104.109C1044.75 105.021 1044.39 106.03 1043.67 107.137C1042.96 108.178 1041.91 109.122 1040.55 109.969C1032.8 114.786 1025.8 119.376 1019.55 123.738C1013.3 128.1 1007.57 131.974 1002.36 135.359C997.22 138.745 992.5 141.414 988.203 143.367C983.971 145.385 980.033 146.395 976.387 146.395C974.173 146.395 972.285 146.102 970.723 145.516C969.16 144.995 967.858 144.279 966.816 143.367C965.84 142.456 965.091 141.382 964.57 140.145C964.115 138.842 963.887 137.508 963.887 136.141C963.887 134.643 964.18 133.178 964.766 131.746C965.417 130.249 966.296 128.654 967.402 126.961C969.421 122.534 971.667 117.911 974.141 113.094C976.615 108.211 978.893 103.589 980.977 99.2266C983.06 94.8646 984.818 90.9909 986.25 87.6055C987.682 84.2201 988.398 81.7786 988.398 80.2812C988.398 79.2396 987.975 78.7188 987.129 78.7188Z" fill="#FFD76B"/>
</svg>
