<svg width="1034" height="162" viewBox="0 0 1034 162" fill="none" xmlns="http://www.w3.org/2000/svg">
<path d="M155.219 146.453C155.414 146.453 156 145.9 156.977 144.793C158.018 143.686 159.32 142.221 160.883 140.398C162.51 138.51 164.301 136.362 166.254 133.953C168.272 131.544 170.29 129.038 172.309 126.434C174.392 123.829 176.443 121.258 178.461 118.719C180.544 116.115 182.432 113.706 184.125 111.492C183.995 110.581 183.865 109.702 183.734 108.855C183.669 108.009 183.637 107.13 183.637 106.219C183.637 101.336 184.483 97.0391 186.176 93.3281C187.934 89.6172 190.082 86.5247 192.621 84.0508C195.16 81.5117 197.862 79.5911 200.727 78.2891C203.656 76.987 206.326 76.3359 208.734 76.3359C212.055 76.3359 214.398 77.0195 215.766 78.3867C217.133 79.7539 217.816 81.5768 217.816 83.8555C217.816 86.1341 217.263 88.7383 216.156 91.668C215.049 94.5977 213.552 97.7227 211.664 101.043C209.841 104.363 207.693 107.781 205.219 111.297C202.81 114.812 200.303 118.263 197.699 121.648C199.457 124.383 201.475 126.629 203.754 128.387C206.098 130.079 208.637 130.926 211.371 130.926C213.454 130.926 215.635 130.275 217.914 128.973L238.617 116.863C239.073 116.603 239.529 116.473 239.984 116.473C240.701 116.473 241.286 116.766 241.742 117.352C242.263 117.872 242.523 118.589 242.523 119.5C242.523 120.346 242.23 121.258 241.645 122.234C241.059 123.211 240.049 124.122 238.617 124.969L223.969 133.562C221.56 134.995 219.216 136.036 216.938 136.688C214.659 137.273 212.478 137.566 210.395 137.566C206.684 137.566 203.298 136.785 200.238 135.223C197.178 133.595 194.509 131.414 192.23 128.68C190.798 130.503 189.105 132.521 187.152 134.734C185.264 136.948 183.148 139.194 180.805 141.473C178.526 143.751 176.085 145.997 173.48 148.211C170.941 150.359 168.337 152.28 165.668 153.973C162.999 155.6 160.297 156.902 157.562 157.879C154.828 158.921 152.126 159.441 149.457 159.441C146.397 159.441 143.858 158.628 141.84 157C139.887 155.307 138.324 153.029 137.152 150.164C135.98 147.234 135.167 143.816 134.711 139.91C134.255 135.939 134.027 131.642 134.027 127.02C134.027 120.509 134.353 113.771 135.004 106.805C135.655 99.7734 136.339 92.8073 137.055 85.9062C135.492 85.9062 133.669 86.9479 131.586 89.0312C129.568 91.1146 127.354 93.849 124.945 97.2344C122.536 100.62 119.932 104.493 117.133 108.855C114.398 113.152 111.501 117.579 108.441 122.137C105.382 126.629 102.191 131.056 98.8711 135.418C95.5508 139.715 92.1328 143.556 88.6172 146.941C85.1016 150.327 81.4883 153.061 77.7773 155.145C74.0664 157.228 70.3229 158.27 66.5469 158.27C64.7891 158.27 63.2917 157.749 62.0547 156.707C60.8828 155.665 59.9062 154.233 59.125 152.41C58.4089 150.587 57.888 148.439 57.5625 145.965C57.3021 143.426 57.1719 140.724 57.1719 137.859C57.1719 133.367 57.4648 128.647 58.0508 123.699C58.6367 118.686 59.3203 113.966 60.1016 109.539C60.8828 105.047 61.6315 101.076 62.3477 97.625C63.1289 94.1745 63.6823 91.7656 64.0078 90.3984C61.8594 91.8307 59.3854 93.4258 56.5859 95.1836C53.7865 96.8763 50.8242 98.6667 47.6992 100.555C44.6393 102.378 41.4492 104.266 38.1289 106.219C34.8737 108.107 31.6836 109.962 28.5586 111.785L6 124.969C5.47917 125.294 4.99089 125.522 4.53516 125.652C4.01432 125.783 3.55859 125.848 3.16797 125.848C1.67057 125.848 0.921875 125.066 0.921875 123.504C0.921875 122.592 1.3125 121.551 2.09375 120.379C2.8099 119.142 4.11198 117.97 6 116.863L64.4961 82.1953C64.6263 82.1302 65.375 81.707 66.7422 80.9258C68.1745 80.1445 69.8997 79.2982 71.918 78.3867C74.0013 77.4753 76.1823 76.6615 78.4609 75.9453C80.7396 75.1641 82.8229 74.7734 84.7109 74.7734C85.4271 75.1641 86.1758 75.6198 86.957 76.1406C87.7383 76.5964 88.4219 77.1497 89.0078 77.8008C89.6589 78.4518 90.1797 79.2005 90.5703 80.0469C91.026 80.8281 91.2539 81.707 91.2539 82.6836C91.2539 82.8789 91.2539 83.1068 91.2539 83.3672C91.2539 83.5625 91.2214 83.7578 91.1562 83.9531L80.707 141.863L93.1094 127.508C95.9089 124.253 98.7409 120.672 101.605 116.766C104.535 112.859 107.53 108.921 110.59 104.949C113.715 100.978 116.905 97.1367 120.16 93.4258C123.48 89.6497 126.931 86.3294 130.512 83.4648C134.092 80.5352 137.803 78.1914 141.645 76.4336C145.551 74.6758 149.652 73.7969 153.949 73.7969C156.358 73.7969 158.018 74.1224 158.93 74.7734C159.906 75.3594 160.395 76.2057 160.395 77.3125C160.395 78.3542 160.102 79.5911 159.516 81.0234C158.93 82.4557 158.246 84.0508 157.465 85.8086C156.749 87.5013 156.033 89.3568 155.316 91.375C154.665 93.3281 154.242 95.3464 154.047 97.4297C153.917 99.0573 153.721 101.206 153.461 103.875C153.201 106.544 152.908 109.474 152.582 112.664C152.322 115.789 152.061 119.044 151.801 122.43C151.605 125.75 151.508 128.908 151.508 131.902C151.508 133.986 151.573 135.906 151.703 137.664C151.833 139.422 152.029 140.952 152.289 142.254C152.615 143.556 153.005 144.598 153.461 145.379C153.917 146.095 154.503 146.453 155.219 146.453ZM191.938 99.3828C191.807 99.7734 191.71 100.197 191.645 100.652C191.645 101.043 191.612 101.466 191.547 101.922C193.63 99.1875 195.062 96.974 195.844 95.2812C196.625 93.5885 197.016 92.3841 197.016 91.668C197.016 91.0169 196.82 90.6914 196.43 90.6914C195.909 90.6914 195.16 91.4076 194.184 92.8398C193.272 94.2721 192.523 96.4531 191.938 99.3828ZM238.617 124.969C237.966 125.424 237.217 125.652 236.371 125.652C235.525 125.652 234.841 125.424 234.32 124.969C233.799 124.448 233.539 123.797 233.539 123.016C233.539 122.169 233.93 121.225 234.711 120.184C235.427 119.077 236.729 117.97 238.617 116.863L263.324 102.312C265.147 97.1693 267.491 92.7422 270.355 89.0312C273.285 85.2552 276.475 82.1628 279.926 79.7539C283.441 77.2799 287.087 75.457 290.863 74.2852C294.704 73.0482 298.415 72.4297 301.996 72.4297C305.642 72.4297 308.637 73.4062 310.98 75.3594C313.389 77.2474 314.594 80.2096 314.594 84.2461C314.594 86.7201 313.682 89.3242 311.859 92.0586C310.102 94.7279 307.66 97.3971 304.535 100.066C301.475 102.671 297.862 105.112 293.695 107.391C289.529 109.669 285.102 111.59 280.414 113.152C280.414 116.277 280.349 119.24 280.219 122.039C280.154 124.839 280.121 127.475 280.121 129.949C280.121 132.033 280.186 133.953 280.316 135.711C280.447 137.404 280.707 138.868 281.098 140.105C281.553 141.277 282.139 142.221 282.855 142.938C283.637 143.589 284.613 143.914 285.785 143.914C287.608 143.914 289.789 143.198 292.328 141.766C294.932 140.268 298.188 138.38 302.094 136.102C305.609 134.018 310.102 131.414 315.57 128.289C321.039 125.164 327.712 121.355 335.59 116.863C335.85 116.668 336.208 116.57 336.664 116.57C337.38 116.57 337.999 116.896 338.52 117.547C339.105 118.133 339.398 118.882 339.398 119.793C339.398 120.574 339.105 121.421 338.52 122.332C337.999 123.243 337.022 124.122 335.59 124.969C329.145 128.81 322.895 132.716 316.84 136.688C310.785 140.594 305.056 144.174 299.652 147.43C294.314 150.62 289.366 153.257 284.809 155.34C280.251 157.358 276.28 158.367 272.895 158.367C270.616 158.367 268.598 157.879 266.84 156.902C265.147 155.926 263.682 154.363 262.445 152.215C261.273 150.066 260.362 147.267 259.711 143.816C259.125 140.301 258.832 136.036 258.832 131.023C258.832 130.242 258.865 129.005 258.93 127.312C259.06 125.555 259.223 123.699 259.418 121.746C259.678 119.728 259.971 117.775 260.297 115.887C260.622 113.999 261.013 112.534 261.469 111.492C261.013 111.753 260.329 112.143 259.418 112.664C258.572 113.185 257.562 113.803 256.391 114.52C255.219 115.171 253.982 115.887 252.68 116.668C251.378 117.449 250.076 118.23 248.773 119.012L238.617 124.969ZM304.047 85.0273C304.177 84.6367 304.242 84.2135 304.242 83.7578C304.242 82.1302 303.949 80.9258 303.363 80.1445C302.842 79.3633 301.931 78.9727 300.629 78.9727C299.132 78.9727 297.406 79.5586 295.453 80.7305C293.5 81.8372 291.579 83.4974 289.691 85.7109C287.868 87.9245 286.208 90.6914 284.711 94.0117C283.279 97.332 282.302 101.141 281.781 105.438C284.451 104.07 287.055 102.508 289.594 100.75C292.133 98.9271 294.411 97.1042 296.43 95.2812C298.513 93.3932 300.206 91.5703 301.508 89.8125C302.875 87.9896 303.721 86.3945 304.047 85.0273ZM446.723 116.863C447.178 116.603 447.667 116.473 448.188 116.473C448.969 116.473 449.685 116.733 450.336 117.254C450.987 117.775 451.312 118.491 451.312 119.402C451.312 120.184 450.954 121.062 450.238 122.039C449.587 123.016 448.415 123.992 446.723 124.969C443.402 126.857 439.757 128.973 435.785 131.316C431.879 133.595 427.842 135.939 423.676 138.348C419.574 140.757 415.473 143.133 411.371 145.477C407.27 147.82 403.363 149.969 399.652 151.922C396.007 153.875 392.686 155.568 389.691 157C386.697 158.367 384.255 159.311 382.367 159.832C381.326 160.158 380.349 160.353 379.438 160.418C378.591 160.548 377.81 160.613 377.094 160.613C374.359 160.613 372.113 159.93 370.355 158.562C368.598 157.195 367.198 155.372 366.156 153.094C365.18 150.75 364.496 148.048 364.105 144.988C363.715 141.863 363.52 138.576 363.52 135.125C363.52 130.438 363.747 125.685 364.203 120.867C364.659 115.984 365.082 111.492 365.473 107.391L344.281 119.891L335.688 124.969C335.232 125.229 334.711 125.359 334.125 125.359C333.344 125.359 332.66 125.099 332.074 124.578C331.488 124.057 331.195 123.341 331.195 122.43C331.195 121.648 331.521 120.802 332.172 119.891C332.823 118.914 333.995 117.905 335.688 116.863L366.059 98.9922C369.184 88.1849 372.406 78.2565 375.727 69.207C379.047 60.1576 382.66 51.987 386.566 44.6953C390.473 37.4036 394.737 30.9909 399.359 25.457C403.982 19.9232 409.158 15.3333 414.887 11.6875C420.616 7.97656 426.964 5.20964 433.93 3.38672C440.961 1.4987 448.773 0.554688 457.367 0.554688C461.664 0.554688 465.277 0.945312 468.207 1.72656C471.137 2.44271 473.513 3.51693 475.336 4.94922C477.224 6.31641 478.559 7.97656 479.34 9.92969C480.186 11.8828 480.609 14.0312 480.609 16.375C480.609 19.3047 479.633 22.4622 477.68 25.8477C475.727 29.168 473.09 32.6185 469.77 36.1992C466.449 39.7799 462.608 43.4258 458.246 47.1367C453.884 50.7826 449.294 54.3958 444.477 57.9766C439.659 61.5573 434.743 65.0078 429.73 68.3281C424.783 71.6484 420.03 74.7409 415.473 77.6055C410.98 80.4701 406.814 83.0417 402.973 85.3203C399.197 87.599 396.104 89.4544 393.695 90.8867C392.523 94.9883 391.352 99.2852 390.18 103.777C389.008 108.27 387.934 112.794 386.957 117.352C386.046 121.909 385.297 126.434 384.711 130.926C384.125 135.353 383.832 139.52 383.832 143.426C383.832 144.988 383.962 146.323 384.223 147.43C384.548 148.536 385.069 149.09 385.785 149.09C387.022 149.09 388.845 148.634 391.254 147.723C393.728 146.746 396.56 145.444 399.75 143.816C402.94 142.189 406.423 140.333 410.199 138.25C414.04 136.102 418.012 133.823 422.113 131.414C426.215 129.005 430.349 126.564 434.516 124.09C438.682 121.616 442.751 119.207 446.723 116.863ZM395.062 81.9023C398.969 79.819 403.591 77.0846 408.93 73.6992C414.333 70.3138 419.9 66.6029 425.629 62.5664C431.423 58.4648 437.12 54.168 442.719 49.6758C448.318 45.1836 453.331 40.7891 457.758 36.4922C462.25 32.1953 465.863 28.1263 468.598 24.2852C471.332 20.3789 472.699 16.9935 472.699 14.1289C472.699 11.7201 471.43 9.79948 468.891 8.36719C466.417 6.86979 462.348 6.12109 456.684 6.12109C447.764 6.12109 440.049 7.71615 433.539 10.9062C427.029 14.0964 421.365 18.849 416.547 25.1641C411.794 31.4792 407.693 39.3893 404.242 48.8945C400.857 58.3346 397.797 69.3372 395.062 81.9023ZM446.82 124.969C446.365 125.229 445.941 125.359 445.551 125.359C444.9 125.359 444.379 125.066 443.988 124.48C443.598 123.895 443.402 123.178 443.402 122.332C443.402 121.421 443.663 120.477 444.184 119.5C444.704 118.458 445.583 117.579 446.82 116.863C456.065 111.395 463.943 106.577 470.453 102.41C477.029 98.2435 482.855 94.7604 487.934 91.9609C493.012 89.0964 497.634 86.9479 501.801 85.5156C506.033 84.0182 510.427 83.2695 514.984 83.2695C521.495 83.2695 526.345 84.181 529.535 86.0039C532.79 87.7617 534.418 90.2031 534.418 93.3281C534.418 95.3464 534.06 97.1367 533.344 98.6992C532.693 100.262 531.781 101.596 530.609 102.703C529.503 103.745 528.201 104.559 526.703 105.145C525.271 105.665 523.806 105.926 522.309 105.926C521.137 105.926 519.9 105.438 518.598 104.461C517.361 103.419 516.742 101.824 516.742 99.6758C516.742 95.7695 516.286 93.0026 515.375 91.375C514.529 89.7474 513.357 88.9336 511.859 88.9336C510.427 88.9336 508.799 89.6172 506.977 90.9844C505.219 92.3516 503.396 94.207 501.508 96.5508C499.62 98.8945 497.764 101.596 495.941 104.656C494.118 107.716 492.491 110.939 491.059 114.324C489.691 117.71 488.552 121.128 487.641 124.578C486.794 128.029 486.371 131.316 486.371 134.441C486.371 140.301 487.673 144.565 490.277 147.234C492.882 149.904 496.234 151.238 500.336 151.238C505.023 151.238 510.004 150.066 515.277 147.723C520.551 145.379 526.215 142.482 532.27 139.031C538.324 135.581 544.77 131.87 551.605 127.898C558.507 123.862 565.928 120.184 573.871 116.863C574.652 116.473 575.303 116.277 575.824 116.277C577.191 116.277 577.875 117.091 577.875 118.719C577.875 119.63 577.549 120.737 576.898 122.039C576.312 123.276 575.303 124.253 573.871 124.969C570.095 126.661 566.221 128.745 562.25 131.219C558.279 133.628 554.177 136.199 549.945 138.934C545.779 141.603 541.482 144.272 537.055 146.941C532.628 149.546 528.103 151.922 523.48 154.07C518.923 156.154 514.268 157.846 509.516 159.148C504.763 160.516 499.945 161.199 495.062 161.199C490.115 161.199 485.915 160.516 482.465 159.148C479.014 157.781 476.215 155.958 474.066 153.68C471.918 151.336 470.355 148.634 469.379 145.574C468.402 142.514 467.914 139.259 467.914 135.809C467.914 132.814 468.305 129.754 469.086 126.629C469.932 123.439 471.072 120.411 472.504 117.547C473.936 114.617 475.629 111.915 477.582 109.441C479.6 106.967 481.749 104.852 484.027 103.094L446.82 124.969ZM665.668 77.6055C669.379 77.6055 672.667 78.3542 675.531 79.8516C678.461 81.349 680.902 83.3997 682.855 86.0039C684.874 88.543 686.404 91.5378 687.445 94.9883C688.487 98.4388 689.008 102.117 689.008 106.023C689.008 108.302 688.747 110.809 688.227 113.543C687.706 116.277 686.957 119.109 685.98 122.039C685.004 124.904 683.799 127.768 682.367 130.633C681 133.497 679.47 136.134 677.777 138.543C679.014 137.892 680.512 137.078 682.27 136.102C684.027 135.125 685.883 134.083 687.836 132.977C689.854 131.805 691.938 130.6 694.086 129.363C696.299 128.126 698.448 126.922 700.531 125.75L715.668 116.863C716.124 116.603 716.742 116.473 717.523 116.473C719.021 116.473 719.77 117.254 719.77 118.816C719.77 120.965 718.402 123.016 715.668 124.969C713.324 126.531 710.264 128.484 706.488 130.828C702.712 133.172 698.611 135.483 694.184 137.762C689.822 139.975 685.362 141.961 680.805 143.719C676.312 145.411 672.113 146.388 668.207 146.648C663.129 150.424 657.172 153.484 650.336 155.828C643.5 158.107 635.525 159.246 626.41 159.246C621.918 159.246 618.109 158.855 614.984 158.074C611.924 157.293 609.451 156.154 607.562 154.656C605.674 153.159 604.307 151.336 603.461 149.188C602.615 146.974 602.191 144.435 602.191 141.57C602.191 137.404 603.038 132.944 604.73 128.191C606.423 123.439 608.507 118.816 610.98 114.324C613.52 109.767 616.221 105.535 619.086 101.629C621.951 97.7227 624.555 94.5 626.898 91.9609C624.815 93.7839 621.853 95.9648 618.012 98.5039C614.236 101.043 609.939 103.777 605.121 106.707C600.368 109.572 595.29 112.566 589.887 115.691C584.548 118.816 579.242 121.909 573.969 124.969C573.188 125.294 572.471 125.457 571.82 125.457C570.974 125.457 570.323 125.229 569.867 124.773C569.411 124.253 569.184 123.602 569.184 122.82C569.184 121.909 569.574 120.965 570.355 119.988C571.072 118.947 572.276 117.905 573.969 116.863C583.865 111.069 592.296 106.089 599.262 101.922C606.228 97.6901 612.25 94.1094 617.328 91.1797C622.406 88.25 626.833 85.9062 630.609 84.1484C634.385 82.3906 637.999 81.0234 641.449 80.0469C644.965 79.0703 648.611 78.4193 652.387 78.0938C656.163 77.7682 660.59 77.6055 665.668 77.6055ZM626.605 150.848C630.707 150.848 634.711 150.001 638.617 148.309C642.523 146.616 646.332 144.305 650.043 141.375C649.197 140.398 648.611 139.292 648.285 138.055C647.96 136.818 647.797 135.548 647.797 134.246C647.797 131.967 648.546 130.275 650.043 129.168C651.54 127.996 653.331 127.41 655.414 127.41C657.628 127.41 659.776 128.061 661.859 129.363C663.943 127.866 665.928 126.076 667.816 123.992C669.704 121.909 671.332 119.695 672.699 117.352C674.132 115.008 675.238 112.599 676.02 110.125C676.866 107.651 677.289 105.242 677.289 102.898C677.289 100.88 676.898 98.9596 676.117 97.1367C675.401 95.2487 674.197 93.6211 672.504 92.2539C670.876 90.8867 668.695 89.8125 665.961 89.0312C663.292 88.1849 660.036 87.7617 656.195 87.7617C653.005 87.7617 649.815 88.6081 646.625 90.3008C643.5 91.9935 640.473 94.2721 637.543 97.1367C634.678 99.9362 631.977 103.159 629.438 106.805C626.964 110.385 624.815 114.096 622.992 117.938C621.169 121.779 619.737 125.555 618.695 129.266C617.654 132.977 617.133 136.362 617.133 139.422C617.133 142.807 617.882 145.574 619.379 147.723C620.876 149.806 623.285 150.848 626.605 150.848ZM933.051 116.863C933.897 116.538 934.581 116.375 935.102 116.375C936.013 116.375 936.827 116.603 937.543 117.059C938.324 117.514 938.715 118.165 938.715 119.012C938.715 119.923 937.738 121.193 935.785 122.82C933.832 124.383 931.456 126.076 928.656 127.898C925.857 129.721 922.96 131.544 919.965 133.367C916.97 135.125 914.398 136.655 912.25 137.957C909.385 139.845 906.163 142.124 902.582 144.793C899.001 147.397 895.29 149.936 891.449 152.41C887.673 154.884 883.93 156.967 880.219 158.66C876.573 160.418 873.253 161.297 870.258 161.297C867.589 161.297 865.31 160.32 863.422 158.367C861.599 156.479 860.688 153.419 860.688 149.188C860.688 146.648 861.078 143.686 861.859 140.301C862.641 136.85 863.943 132.879 865.766 128.387C867.914 123.048 869.77 118.361 871.332 114.324C872.96 110.288 874.294 106.837 875.336 103.973C876.378 101.108 877.159 98.7643 877.68 96.9414C878.201 95.0534 878.461 93.5885 878.461 92.5469C878.461 90.3333 877.647 89.2266 876.02 89.2266C874.392 89.2266 872.113 90.3008 869.184 92.4492C866.254 94.5326 862.966 97.2995 859.32 100.75C855.74 104.201 851.964 108.172 847.992 112.664C844.086 117.091 840.342 121.681 836.762 126.434C833.181 131.186 829.958 135.874 827.094 140.496C824.229 145.118 822.048 149.318 820.551 153.094C820.29 153.745 819.802 154.396 819.086 155.047C818.37 155.633 817.523 156.186 816.547 156.707C815.635 157.163 814.626 157.521 813.52 157.781C812.413 158.107 811.339 158.27 810.297 158.27C808.539 158.27 807.009 157.781 805.707 156.805C804.405 155.763 803.754 154.005 803.754 151.531C803.754 149.448 804.145 147.072 804.926 144.402C805.772 141.668 806.586 139.096 807.367 136.688C808.474 132.781 809.646 128.842 810.883 124.871C812.185 120.835 813.389 117.156 814.496 113.836C815.798 109.995 817.1 106.251 818.402 102.605C818.988 101.629 819.607 100.587 820.258 99.4805C820.974 98.3086 821.592 97.1367 822.113 95.9648C822.634 94.793 823.057 93.6536 823.383 92.5469C823.773 91.375 823.969 90.3333 823.969 89.4219C823.969 87.7943 823.22 86.9805 821.723 86.9805C818.663 86.9805 815.147 88.0872 811.176 90.3008C807.27 92.4492 803.201 95.2812 798.969 98.7969C794.802 102.247 790.635 106.186 786.469 110.613C782.302 114.975 778.461 119.402 774.945 123.895C771.43 128.322 768.402 132.586 765.863 136.688C763.324 140.724 761.566 144.174 760.59 147.039C760.004 148.797 759.451 150.327 758.93 151.629C758.474 152.931 757.953 154.005 757.367 154.852C756.781 155.698 756.065 156.349 755.219 156.805C754.372 157.195 753.266 157.391 751.898 157.391C749.164 157.391 747.309 156.642 746.332 155.145C745.421 153.582 744.965 151.596 744.965 149.188C744.965 148.081 745.29 146.388 745.941 144.109C746.592 141.766 747.439 139.096 748.48 136.102C749.587 133.107 750.792 129.884 752.094 126.434C753.396 122.918 754.698 119.435 756 115.984C757.367 112.469 758.669 109.083 759.906 105.828C761.143 102.573 762.185 99.6758 763.031 97.1367L715.766 124.969C714.919 125.424 714.105 125.652 713.324 125.652C712.543 125.652 711.892 125.424 711.371 124.969C710.785 124.513 710.492 123.895 710.492 123.113C710.492 122.267 710.915 121.29 711.762 120.184C712.543 119.077 713.878 117.97 715.766 116.863L750.629 96.3555C751.475 95.7044 752.452 95.0534 753.559 94.4023C754.73 93.7513 755.935 93.1654 757.172 92.6445C758.474 92.1237 759.776 91.7005 761.078 91.375C762.38 91.0495 763.682 90.8867 764.984 90.8867C766.417 90.8867 767.686 91.2448 768.793 91.9609C769.965 92.612 770.941 93.4583 771.723 94.5C772.504 95.4766 773.09 96.5833 773.48 97.8203C773.936 99.0573 774.164 100.229 774.164 101.336C774.164 102.508 774.066 103.68 773.871 104.852C773.741 105.958 773.415 107.358 772.895 109.051C772.439 110.678 771.788 112.697 770.941 115.105C770.095 117.514 768.988 120.607 767.621 124.383C769.9 121.323 772.276 118.165 774.75 114.91C777.289 111.59 779.958 108.367 782.758 105.242C785.557 102.052 788.52 99.0247 791.645 96.1602C794.835 93.2956 798.188 90.7891 801.703 88.6406C805.219 86.4922 808.93 84.7995 812.836 83.5625C816.807 82.2604 820.974 81.6094 825.336 81.6094C826.638 81.6094 827.908 81.9349 829.145 82.5859C830.447 83.1719 831.586 84.1159 832.562 85.418C833.604 86.7201 834.418 88.3802 835.004 90.3984C835.655 92.4167 835.98 94.793 835.98 97.5273C835.98 100.717 835.492 104.396 834.516 108.562C833.604 112.664 832.009 117.352 829.73 122.625C834.353 115.854 839.008 110.19 843.695 105.633C848.448 101.01 853.038 97.2018 857.465 94.207C861.957 91.2122 866.221 88.9336 870.258 87.3711C874.294 85.7435 877.94 84.5391 881.195 83.7578C883.018 83.7578 884.939 84.0182 886.957 84.5391C888.975 85.0599 890.798 85.8411 892.426 86.8828C894.053 87.8594 895.388 89.1289 896.43 90.6914C897.536 92.2539 898.09 94.0768 898.09 96.1602C898.09 96.7461 898.057 97.332 897.992 97.918C897.927 98.5039 897.797 99.1224 897.602 99.7734C896.82 102.508 895.746 105.47 894.379 108.66C893.012 111.785 891.547 114.975 889.984 118.23C888.422 121.486 886.794 124.708 885.102 127.898C883.474 131.023 882.009 133.986 880.707 136.785C879.405 139.52 878.331 141.993 877.484 144.207C876.638 146.355 876.215 148.048 876.215 149.285C876.215 150.848 876.801 151.629 877.973 151.629C878.949 151.629 880.447 151.01 882.465 149.773C884.548 148.536 886.924 147.007 889.594 145.184C892.263 143.296 895.16 141.245 898.285 139.031C901.41 136.818 904.535 134.734 907.66 132.781L933.051 116.863ZM933.148 124.969C932.497 125.424 931.749 125.652 930.902 125.652C930.056 125.652 929.372 125.424 928.852 124.969C928.331 124.448 928.07 123.797 928.07 123.016C928.07 122.169 928.461 121.225 929.242 120.184C929.958 119.077 931.26 117.97 933.148 116.863L957.855 102.312C959.678 97.1693 962.022 92.7422 964.887 89.0312C967.816 85.2552 971.007 82.1628 974.457 79.7539C977.973 77.2799 981.618 75.457 985.395 74.2852C989.236 73.0482 992.947 72.4297 996.527 72.4297C1000.17 72.4297 1003.17 73.4062 1005.51 75.3594C1007.92 77.2474 1009.12 80.2096 1009.12 84.2461C1009.12 86.7201 1008.21 89.3242 1006.39 92.0586C1004.63 94.7279 1002.19 97.3971 999.066 100.066C996.007 102.671 992.393 105.112 988.227 107.391C984.06 109.669 979.633 111.59 974.945 113.152C974.945 116.277 974.88 119.24 974.75 122.039C974.685 124.839 974.652 127.475 974.652 129.949C974.652 132.033 974.717 133.953 974.848 135.711C974.978 137.404 975.238 138.868 975.629 140.105C976.085 141.277 976.671 142.221 977.387 142.938C978.168 143.589 979.145 143.914 980.316 143.914C982.139 143.914 984.32 143.198 986.859 141.766C989.464 140.268 992.719 138.38 996.625 136.102C1000.14 134.018 1004.63 131.414 1010.1 128.289C1015.57 125.164 1022.24 121.355 1030.12 116.863C1030.38 116.668 1030.74 116.57 1031.2 116.57C1031.91 116.57 1032.53 116.896 1033.05 117.547C1033.64 118.133 1033.93 118.882 1033.93 119.793C1033.93 120.574 1033.64 121.421 1033.05 122.332C1032.53 123.243 1031.55 124.122 1030.12 124.969C1023.68 128.81 1017.43 132.716 1011.37 136.688C1005.32 140.594 999.587 144.174 994.184 147.43C988.845 150.62 983.897 153.257 979.34 155.34C974.783 157.358 970.811 158.367 967.426 158.367C965.147 158.367 963.129 157.879 961.371 156.902C959.678 155.926 958.214 154.363 956.977 152.215C955.805 150.066 954.893 147.267 954.242 143.816C953.656 140.301 953.363 136.036 953.363 131.023C953.363 130.242 953.396 129.005 953.461 127.312C953.591 125.555 953.754 123.699 953.949 121.746C954.21 119.728 954.503 117.775 954.828 115.887C955.154 113.999 955.544 112.534 956 111.492C955.544 111.753 954.861 112.143 953.949 112.664C953.103 113.185 952.094 113.803 950.922 114.52C949.75 115.171 948.513 115.887 947.211 116.668C945.909 117.449 944.607 118.23 943.305 119.012L933.148 124.969ZM998.578 85.0273C998.708 84.6367 998.773 84.2135 998.773 83.7578C998.773 82.1302 998.48 80.9258 997.895 80.1445C997.374 79.3633 996.462 78.9727 995.16 78.9727C993.663 78.9727 991.938 79.5586 989.984 80.7305C988.031 81.8372 986.111 83.4974 984.223 85.7109C982.4 87.9245 980.74 90.6914 979.242 94.0117C977.81 97.332 976.833 101.141 976.312 105.438C978.982 104.07 981.586 102.508 984.125 100.75C986.664 98.9271 988.943 97.1042 990.961 95.2812C993.044 93.3932 994.737 91.5703 996.039 89.8125C997.406 87.9896 998.253 86.3945 998.578 85.0273Z" fill="#FFD76B"/>
</svg>
